<?xml version="1.0" standalone="no"?>
<!DOCTYPE svg PUBLIC "-//W3C//DTD SVG 20010904//EN"
 "http://www.w3.org/TR/2001/REC-SVG-20010904/DTD/svg10.dtd">
<svg version="1.0" xmlns="http://www.w3.org/2000/svg"
 width="1170.000000pt" height="780.000000pt" viewBox="0 0 1170.000000 780.000000"
 preserveAspectRatio="xMidYMid meet">

<g transform="translate(0.000000,780.000000) scale(0.100000,-0.100000)"
fill="#000000" stroke="none">
<path d="M0 3900 l0 -3900 398 0 397 0 60 48 c306 246 405 321 405 308 0 -21
-53 -118 -77 -143 -39 -38 -141 -126 -197 -169 -25 -19 -46 -37 -46 -39 0 -3
49 -5 110 -5 l109 0 28 56 c15 31 33 59 40 61 7 3 13 14 13 24 0 25 34 72 85
119 102 93 337 291 341 287 3 -2 -44 -127 -105 -276 l-109 -271 33 0 c37 0 23
-29 202 405 43 105 83 197 88 206 12 19 628 549 633 544 3 -3 -331 -818 -374
-910 -13 -29 -60 -89 -113 -145 l-89 -95 30 -3 c27 -3 41 6 105 70 40 40 73
70 73 67 0 -3 -11 -34 -26 -68 -14 -35 -23 -66 -20 -69 3 -3 15 17 26 44 50
120 69 148 189 274 68 72 125 129 128 126 2 -2 -35 -98 -82 -213 -48 -114 -90
-214 -92 -221 -3 -7 4 -12 20 -12 20 0 65 44 229 229 112 127 206 230 209 230
4 1 -36 -101 -87 -226 -52 -125 -94 -229 -94 -231 0 -2 9 -2 21 0 17 2 42 56
142 297 l122 294 84 94 c46 52 85 92 87 90 2 -2 -39 -107 -92 -233 -53 -126
-118 -285 -146 -354 -27 -69 -58 -140 -69 -158 -43 -73 9 -16 192 213 105 132
194 239 198 238 3 -1 12 10 20 25 20 37 123 164 129 158 2 -3 12 9 21 27 9 18
75 103 146 190 72 87 143 175 158 195 16 20 43 55 62 77 18 22 80 99 136 170
57 72 108 135 113 141 6 6 34 39 61 74 62 77 255 310 272 328 21 21 15 27 -7
7 -11 -10 -20 -13 -20 -7 0 6 38 99 85 208 73 171 91 204 134 248 28 28 59 62
70 76 11 14 20 21 21 15 0 -5 -32 -85 -71 -176 -54 -127 -84 -183 -126 -235
-61 -77 -91 -128 -43 -74 57 64 312 382 301 376 -6 -4 -11 -1 -11 6 -1 7 -8 0
-17 -17 -9 -16 -33 -50 -53 -75 -20 -25 -50 -64 -65 -88 -15 -23 -30 -41 -32
-38 -4 4 128 324 150 362 18 32 131 152 124 132 -19 -49 -15 -48 11 5 16 32
36 63 43 70 8 7 25 26 38 42 34 43 -89 -85 -184 -190 -44 -49 -109 -121 -145
-160 -36 -39 -105 -115 -155 -170 -49 -54 -99 -108 -110 -119 -11 -11 -32 -35
-46 -53 -14 -18 -71 -80 -125 -139 -104 -113 -129 -140 -290 -319 -54 -60
-101 -112 -105 -115 -3 -3 -33 -36 -66 -73 -34 -38 -64 -68 -68 -67 -4 1 -17
-14 -29 -33 -11 -19 -64 -81 -116 -138 -126 -137 -182 -198 -210 -231 -13 -15
-27 -25 -32 -22 -4 3 -8 1 -8 -4 0 -12 -40 -62 -123 -153 l-68 -74 40 95 c134
323 126 308 207 397 42 46 79 82 81 79 2 -2 -25 -75 -61 -162 -37 -86 -65
-159 -63 -161 2 -2 39 79 81 179 l77 183 165 167 c95 96 163 158 159 145 -3
-12 5 -2 19 23 22 40 116 144 116 128 0 -4 -9 -28 -20 -54 -11 -26 -19 -49
-17 -51 3 -2 17 28 33 66 26 61 47 88 188 235 88 91 162 163 165 160 3 -2 10
5 16 16 10 18 213 230 709 738 l130 132 12 -27 c8 -20 8 -32 0 -43 -7 -10 -3
-9 10 2 11 10 25 18 31 18 5 0 81 29 169 64 129 52 1053 417 1117 441 12 5 17
2 17 -9 0 -22 22 -20 48 4 12 11 47 30 77 42 31 11 54 23 52 25 -3 2 -28 -5
-56 -17 -55 -21 -77 -26 -49 -9 34 19 153 59 134 45 -17 -14 -16 -15 10 -11
16 2 39 4 52 4 23 1 31 26 10 34 -15 5 36 28 69 30 17 2 50 -37 167 -201 80
-112 146 -209 146 -216 0 -6 -23 -63 -51 -126 -28 -63 -60 -135 -71 -160 -14
-32 -21 -41 -28 -31 -4 8 -6 21 -2 29 3 9 1 13 -5 9 -14 -9 -37 48 -27 64 4 7
3 10 -3 6 -6 -4 -16 6 -23 21 -37 78 -90 207 -90 219 0 7 -4 13 -10 13 -5 0
-10 8 -10 18 -1 17 -79 174 -80 160 0 -4 13 -38 29 -75 16 -38 57 -133 92
-213 34 -80 73 -169 86 -198 13 -30 22 -61 18 -70 -3 -9 -3 -13 1 -9 6 6 53
-71 59 -97 4 -20 17 -50 43 -103 24 -46 25 -56 15 -85 -11 -30 -11 -31 3 -13
13 17 16 18 24 5 6 -8 8 -20 5 -27 -2 -6 0 -13 5 -15 4 -2 19 -28 33 -57 l25
-55 -24 -54 c-31 -71 -30 -80 3 -18 21 42 27 47 35 32 13 -23 6 -48 -44 -157
-40 -88 -42 -90 -51 -63 -5 16 -13 38 -18 49 -24 52 -47 137 -42 152 4 11 3
14 -5 9 -8 -4 -12 0 -12 11 0 11 -4 23 -9 28 -15 17 -43 116 -38 136 3 10 1
19 -4 19 -5 0 -9 6 -9 14 0 8 -4 16 -8 18 -5 2 -20 37 -34 78 -181 529 -223
648 -226 642 -1 -5 40 -137 93 -294 52 -156 95 -295 95 -306 0 -12 5 -22 10
-22 15 0 12 -41 -5 -70 -8 -14 -14 -29 -14 -35 0 -5 7 3 15 18 19 35 32 27 40
-24 4 -21 10 -39 14 -39 4 0 10 -13 12 -30 3 -16 2 -28 0 -25 -3 3 -25 -41
-48 -97 -24 -56 -42 -103 -40 -105 2 -2 13 18 24 44 65 150 64 148 78 129 7
-10 16 -35 19 -57 4 -21 11 -39 16 -39 19 0 7 -55 -33 -153 -48 -117 -127
-281 -132 -276 -2 2 -6 31 -9 64 -3 33 -9 80 -12 105 -6 36 -2 56 19 104 36
81 32 84 -8 6 l-34 -65 -7 50 c-4 28 -11 65 -16 84 -7 30 -3 48 31 124 22 50
39 92 37 94 -2 1 -21 -34 -42 -80 l-38 -82 -14 69 c-13 63 -13 73 1 103 22 46
20 56 -3 14 l-18 -34 -12 62 c-7 34 -9 66 -6 71 3 6 2 10 -4 10 -5 0 -12 19
-16 43 -13 90 -27 147 -34 147 -4 0 5 -60 20 -133 15 -73 30 -151 33 -174 2
-22 9 -58 15 -79 6 -22 13 -57 16 -79 3 -22 13 -69 21 -104 9 -35 16 -85 17
-111 1 -26 5 -46 8 -44 10 6 32 -123 25 -141 -3 -9 -2 -14 3 -11 15 10 18 -41
4 -74 -17 -41 -16 -52 2 -20 l13 25 6 -25 c2 -14 10 -49 16 -78 7 -29 9 -64 6
-78 -4 -16 -3 -23 3 -20 6 4 13 -8 16 -26 5 -26 -3 -54 -40 -133 -44 -92 -48
-98 -57 -75 -5 14 -7 35 -5 48 2 12 1 22 -3 22 -9 0 -33 178 -25 190 3 5 2 11
-3 14 -5 3 -14 51 -21 108 -7 57 -19 139 -27 183 -8 44 -16 96 -18 115 -10 85
-39 260 -43 256 -5 -5 8 -116 38 -326 30 -205 50 -352 54 -385 2 -16 9 -67 15
-113 7 -45 10 -91 7 -102 -3 -11 -1 -18 4 -14 5 3 10 -3 11 -13 7 -77 4 -98
-14 -130 -11 -18 -18 -36 -16 -39 3 -2 11 9 18 26 7 16 16 30 19 30 9 0 44
-238 45 -300 0 -25 -3 -54 -8 -65 -7 -19 -7 -19 7 -2 14 17 16 14 21 -40 4
-32 13 -101 20 -153 l14 -95 -70 -158 c-97 -221 -166 -367 -173 -367 -3 0 -2
8 3 17 5 10 5 56 1 103 -18 206 -20 199 87 434 53 116 98 216 100 222 3 6 -1
11 -9 11 -9 0 -13 -8 -10 -21 4 -15 2 -17 -5 -8 -7 11 -10 11 -15 -2 -4 -9 -3
-23 0 -33 4 -11 3 -14 -5 -9 -8 5 -10 1 -5 -10 4 -12 3 -15 -5 -10 -8 4 -10 2
-6 -8 3 -8 1 -23 -5 -33 -8 -14 -10 -15 -11 -3 0 13 -1 13 -10 0 -5 -8 -7 -23
-4 -34 4 -12 2 -16 -5 -12 -7 5 -9 1 -4 -11 3 -10 2 -15 -3 -10 -5 5 -31 -38
-61 -100 l-53 -108 4 84 c3 57 1 79 -6 70 -7 -10 -8 -8 -5 9 3 12 1 70 -5 129
-9 92 -8 110 6 141 9 19 14 37 11 40 -3 3 -5 1 -5 -4 0 -6 -7 -19 -15 -30 -14
-17 -15 -12 -9 55 4 43 3 72 -2 68 -15 -9 -11 205 4 231 8 13 11 26 8 30 -3 3
-6 1 -6 -4 0 -6 -7 -19 -16 -30 -14 -18 -15 -15 -11 38 2 34 0 55 -6 51 -5 -3
-6 4 -2 16 4 12 1 44 -5 71 -10 43 -9 54 9 95 24 55 27 73 5 32 -9 -16 -17
-27 -20 -25 -5 6 -17 223 -18 340 -1 53 -4 94 -8 92 -4 -3 -9 17 -11 43 -5 60
2 -198 9 -287 11 -165 26 -439 27 -495 1 -16 -3 -39 -7 -50 -6 -16 -6 -17 3
-5 9 12 11 9 11 -15 0 -16 3 -67 6 -111 4 -55 2 -89 -6 -104 -7 -14 -8 -20 -1
-16 12 8 31 -54 21 -69 -12 -18 -20 -46 -11 -41 9 6 25 -89 17 -102 -2 -4 -1
-39 4 -77 8 -68 8 -69 -41 -179 -27 -60 -47 -112 -44 -114 2 -3 9 6 14 19 5
13 24 56 42 94 l34 70 3 -58 c3 -50 -3 -70 -44 -163 -36 -80 -49 -102 -55 -88
-3 11 -8 80 -10 154 -5 219 -4 264 5 285 6 16 6 17 -3 5 -8 -11 -11 -2 -11 40
0 30 -3 110 -6 176 -4 86 -3 128 6 144 7 12 8 20 2 16 -9 -5 -26 227 -21 274
1 8 1 40 -1 70 l-2 55 -8 -40 c-4 -22 -6 -43 -4 -46 1 -3 6 -122 9 -265 3
-142 8 -305 10 -362 2 -57 0 -114 -5 -128 -7 -17 -7 -23 0 -19 6 4 10 -28 11
-87 0 -51 3 -150 5 -219 4 -111 2 -132 -16 -174 -21 -49 -18 -74 6 -54 10 8
14 8 14 0 0 -6 5 -11 10 -11 6 0 10 29 10 66 0 56 6 79 42 157 60 131 62 133
69 51 3 -38 2 -79 -3 -92 -5 -15 -4 -21 2 -17 6 4 10 -15 10 -48 0 -81 9 -117
30 -117 13 0 17 6 13 19 -4 17 143 366 207 491 l18 34 12 -59 c12 -57 11 -61
-20 -134 -44 -105 -46 -116 -8 -43 32 61 48 77 48 46 0 -8 -3 -13 -8 -10 -4 2
-41 -71 -81 -162 -41 -92 -77 -171 -79 -176 -3 -5 -1 -6 5 -3 5 3 41 76 78
162 38 85 72 155 77 155 4 0 10 -10 12 -22 8 -40 36 -232 39 -263 2 -36 34
-47 54 -19 12 16 13 16 13 1 0 -9 4 -17 8 -17 4 0 6 15 4 33 -2 23 10 61 44
134 53 115 63 117 82 13 9 -49 7 -62 -14 -114 -28 -70 -28 -66 -9 -66 8 0 15
5 15 11 0 5 5 7 11 4 6 -4 9 -1 7 7 -2 7 2 15 7 16 6 2 11 -6 13 -18 3 -15 11
-20 34 -20 23 0 29 4 24 15 -3 8 -8 36 -12 62 -5 45 1 62 114 313 143 316 154
340 162 340 7 0 116 -334 124 -381 5 -30 -3 -57 -50 -160 -91 -200 -86 -189
-70 -189 8 0 18 10 21 23 17 55 48 116 57 111 5 -3 8 0 6 8 -4 19 32 96 48
102 10 4 23 -12 39 -46 37 -76 40 -109 16 -156 l-20 -40 79 -1 79 -1 -5 38
c-3 20 -10 49 -14 64 -6 19 -4 36 5 55 8 16 15 34 15 41 0 16 36 83 42 77 2
-2 12 22 21 55 12 41 22 57 31 54 8 -3 16 4 20 19 9 38 33 41 51 6 9 -16 15
-39 14 -52 -4 -47 2 -66 22 -72 19 -6 21 -13 16 -58 -2 -28 -10 -53 -16 -55
-6 -2 -9 -7 -6 -12 3 -4 -4 -6 -15 -3 -17 5 -18 1 -13 -29 3 -24 -1 -47 -16
-76 -12 -23 -21 -44 -21 -47 0 -3 16 -5 35 -5 28 0 35 4 35 20 0 11 5 20 11
20 16 0 40 28 42 49 0 11 5 17 10 14 4 -3 6 -11 3 -19 -3 -7 -1 -16 4 -19 6
-4 10 -15 10 -26 0 -12 7 -19 19 -19 11 0 23 -4 26 -10 4 -7 665 -10 1951 -10
l1944 0 -1 3103 0 3102 -44 -86 c-24 -47 -49 -90 -57 -96 -19 -15 -328 -116
-335 -109 -6 6 0 22 73 176 l42 86 83 29 c46 15 118 41 159 56 l75 27 3 756 2
756 -143 0 c-137 0 -144 -1 -165 -23 -12 -13 -22 -29 -22 -36 0 -7 -5 -9 -11
-6 -6 4 -8 13 -5 21 7 19 1 18 -48 -8 -54 -30 -52 -28 -37 -37 10 -6 9 -10 -5
-15 -9 -4 -21 -3 -26 2 -13 13 1 40 23 47 11 4 31 17 46 31 l26 24 -32 0 c-18
0 -30 -3 -27 -8 6 -10 -22 -47 -30 -39 -12 11 -34 -21 -34 -50 0 -33 -16 -57
-44 -67 -14 -5 -17 -2 -12 10 3 8 6 25 6 35 0 11 4 18 9 14 5 -3 12 -1 16 5 3
5 1 10 -4 10 -18 0 -12 20 7 27 9 4 23 15 30 25 7 10 18 15 24 12 7 -4 8 -2 4
4 -4 8 -21 3 -53 -14 -64 -34 -82 -51 -107 -105 -12 -25 -27 -44 -34 -41 -7 2
-12 -5 -12 -18 0 -13 -8 -24 -20 -27 -18 -5 -24 -15 -21 -35 0 -5 -5 -8 -13
-8 -8 0 -19 -13 -24 -30 -8 -21 -16 -28 -26 -24 -11 4 -16 0 -16 -13 0 -11 -9
-28 -20 -38 -11 -10 -17 -22 -13 -28 3 -6 1 -7 -6 -3 -6 4 -14 1 -17 -8 -3 -9
-12 -12 -21 -9 -11 4 -14 2 -9 -5 7 -12 -5 -16 -32 -13 -8 1 -16 -6 -18 -16
-3 -10 -19 -27 -37 -38 -40 -25 -57 -31 -35 -12 10 8 25 34 33 58 16 43 48 83
59 72 3 -4 6 4 6 16 0 12 6 24 14 27 8 3 17 15 20 27 6 21 162 137 185 137 6
0 11 4 11 10 0 5 8 7 18 4 14 -5 14 -4 2 5 -14 10 -40 -2 -112 -51 -14 -10
-31 -18 -36 -18 -6 0 -12 -4 -14 -8 -1 -5 -39 -33 -83 -62 -121 -81 -158 -112
-143 -121 19 -12 -15 -65 -39 -62 -10 1 -12 0 -5 -3 6 -3 12 -10 12 -15 0 -17
-64 -49 -98 -49 -21 0 -31 -4 -27 -11 4 -5 -8 -24 -27 -40 -18 -17 -42 -39
-53 -50 -31 -29 -37 -23 -20 18 17 40 79 103 101 103 8 0 14 5 14 10 0 6 11
15 25 20 14 5 25 14 25 20 0 13 -86 -34 -147 -80 -27 -20 -47 -43 -46 -51 1
-8 -17 -52 -40 -99 l-42 -85 -125 -82 c-68 -45 -126 -80 -128 -78 -10 10 78
174 103 191 65 46 74 61 12 22 -68 -43 -68 -44 -106 -138 l-37 -95 -115 -77
c-63 -42 -115 -75 -117 -73 -10 9 58 143 88 173 l34 36 -33 -20 c-44 -26 -50
-33 -92 -127 -28 -62 -44 -85 -68 -98 -18 -10 -40 -24 -50 -33 -10 -9 -22 -16
-28 -16 -5 0 -18 -9 -28 -20 -10 -11 -20 -19 -22 -17 -8 9 52 125 81 156 l31
34 -39 -26 c-31 -21 -46 -41 -70 -100 -17 -41 -38 -82 -46 -92 -16 -19 -173
-125 -178 -120 -2 2 13 35 32 74 20 39 36 73 36 77 0 11 -30 -18 -30 -30 0 -6
-13 -40 -29 -75 -27 -59 -35 -68 -100 -108 -39 -23 -74 -43 -76 -43 -10 0 47
116 68 139 12 13 -25 -8 -83 -47 -104 -71 -105 -72 -135 -143 -16 -40 -39 -77
-50 -84 -11 -7 -67 -43 -123 -80 -57 -36 -106 -64 -109 -62 -6 6 34 86 56 111
15 18 15 18 -7 7 -12 -7 -36 -41 -52 -75 -17 -35 -38 -70 -48 -77 -16 -13 -16
-12 -3 6 8 11 2 7 -13 -8 -16 -16 -30 -26 -33 -23 -8 7 16 66 36 90 15 18 15
18 -5 8 -11 -6 -31 -38 -45 -73 -23 -59 -28 -64 -119 -125 -52 -34 -96 -61
-99 -59 -2 3 7 27 21 54 13 27 19 47 12 44 -6 -2 -19 -25 -29 -51 -16 -45 -76
-113 -83 -93 -2 5 7 29 19 53 12 24 16 38 8 31 -8 -6 -23 -34 -34 -63 -18 -48
-27 -55 -128 -120 -59 -39 -110 -70 -112 -70 -2 0 -33 -21 -69 -46 -36 -25
-70 -43 -76 -39 -5 3 -10 2 -10 -4 0 -9 -148 -110 -360 -245 -215 -137 -386
-248 -395 -257 -20 -21 30 5 68 34 20 16 37 24 37 18 0 -5 17 6 38 24 20 19
41 34 46 32 6 -2 17 3 25 10 34 30 79 63 85 63 3 0 -8 -30 -25 -66 -16 -37
-28 -69 -26 -71 2 -2 19 30 37 71 19 46 40 78 51 81 10 4 32 20 49 37 17 17
32 29 34 27 2 -2 -26 -73 -63 -157 -65 -151 -67 -154 -106 -168 -21 -7 -41
-11 -43 -9 -2 2 6 25 17 51 12 26 20 49 17 51 -4 4 -46 -91 -46 -105 0 -10
-78 -48 -84 -41 -2 2 9 33 25 68 16 35 27 66 25 68 -2 2 -18 -30 -36 -71 -26
-60 -39 -77 -64 -88 -17 -7 -33 -13 -36 -14 -5 0 -39 -15 -95 -40 -64 -29
-1103 -444 -1111 -444 -2 0 -1 7 2 15 9 23 -29 19 -51 -5 -10 -11 -22 -17 -26
-14 -5 3 -9 2 -9 -3 0 -9 -113 -55 -144 -58 -12 -1 -31 -3 -43 -4 -23 -1 -33
-31 -11 -31 26 0 -11 -19 -117 -60 -158 -61 -209 -80 -216 -80 -9 0 -40 101
-33 111 3 5 0 8 -8 7 -8 -2 -13 6 -12 19 0 12 -4 19 -9 16 -6 -4 -8 0 -4 10 3
8 0 18 -7 20 -20 8 -25 56 -10 93 13 32 34 46 34 24 0 -5 15 -10 33 -10 18 0
57 -9 87 -19 30 -10 71 -22 90 -25 40 -7 37 -5 -90 41 -52 19 -104 38 -115 43
-11 5 -33 11 -49 15 -23 5 -27 10 -23 30 2 16 0 25 -8 25 -19 0 -66 48 -54 56
12 7 -34 34 -59 34 -21 0 -6 13 20 17 26 4 24 1 32 36 5 20 3 27 -4 22 -7 -4
-14 2 -17 15 -4 13 -16 23 -34 27 -21 4 -29 11 -29 27 0 16 -2 18 -9 7 -8 -12
-12 -12 -24 -3 -12 10 -13 21 -5 52 11 43 28 45 28 4 0 -14 4 -22 10 -19 6 3
7 17 4 31 -3 13 -2 24 3 24 13 0 43 -34 43 -49 0 -7 4 -9 10 -6 11 6 90 -43
90 -56 0 -5 5 -9 10 -9 9 0 62 -36 170 -118 50 -37 225 -154 215 -144 -5 6
-50 42 -100 80 -73 57 -90 74 -87 93 1 17 -1 20 -7 10 -6 -9 -11 -10 -15 -3
-4 6 -14 8 -23 5 -17 -7 -16 3 2 52 l8 20 -16 -20 c-12 -15 -18 -17 -28 -8 -6
6 -18 9 -27 5 -19 -7 -24 -22 81 225 45 106 85 193 90 193 4 0 7 -10 7 -22 1
-23 29 -83 30 -63 0 6 10 -10 23 -35 69 -136 121 -230 124 -227 3 3 -138 312
-170 372 -6 11 -16 31 -23 45 -6 14 -26 54 -44 89 -17 35 -30 72 -27 82 3 11
1 16 -4 13 -18 -11 -21 29 -5 63 9 20 15 37 13 40 -2 2 -10 -10 -17 -27 -7
-16 -15 -30 -19 -30 -3 0 -17 22 -29 48 l-23 48 21 48 c27 64 25 72 -5 16 -19
-36 -25 -42 -30 -27 -4 9 -5 29 -3 42 4 18 2 23 -6 16 -8 -7 -21 10 -45 58
l-33 68 58 134 c31 74 63 150 71 169 18 41 23 34 48 -67 16 -61 17 -78 6 -110
-7 -21 -14 -45 -17 -53 -3 -8 5 3 17 24 18 34 23 37 31 22 5 -10 7 -29 4 -43
-4 -15 -3 -22 3 -18 9 5 24 -30 26 -57 0 -3 3 -10 8 -14 4 -4 7 -22 7 -41 0
-18 5 -33 10 -33 6 0 10 -11 10 -24 0 -14 5 -28 10 -31 6 -3 10 -14 10 -23 0
-10 11 -51 24 -92 13 -41 33 -109 45 -150 46 -155 124 -391 128 -387 2 3 -10
47 -26 98 -41 131 -45 157 -29 177 12 15 11 16 -4 3 -16 -12 -18 -11 -18 11 0
13 -5 29 -12 36 -9 9 -7 21 10 51 12 21 22 43 22 47 -1 5 -9 -7 -20 -26 -16
-31 -19 -33 -25 -15 -4 11 -11 30 -17 42 -8 16 -6 31 10 65 44 94 93 211 89
215 -2 2 -26 -46 -52 -107 -26 -60 -51 -110 -55 -110 -7 0 -30 68 -30 92 0 23
173 434 191 452 10 11 7 -179 -4 -209 -5 -14 -4 -13 4 3 7 12 15 22 19 22 4 0
10 -48 14 -107 11 -151 14 -185 22 -192 7 -6 3 60 -17 294 -6 72 -12 146 -14
165 -1 19 -6 64 -9 100 -4 36 -9 85 -11 110 -1 25 -8 106 -15 180 -12 122 -11
138 3 167 20 38 22 59 3 24 -13 -24 -14 -24 -20 -4 -4 11 -7 33 -7 49 0 16 -5
86 -11 156 l-11 128 68 160 c37 88 69 159 71 157 3 -3 9 -152 20 -507 3 -91 7
-226 9 -300 3 -74 8 -243 11 -375 3 -132 10 -285 14 -340 7 -77 8 -60 4 78 -4
137 -2 183 8 195 10 12 10 14 1 8 -20 -11 -17 153 2 178 8 11 15 24 15 30 0 5
-7 1 -15 -10 -13 -17 -14 -10 -15 76 0 91 2 100 45 199 25 57 44 106 42 108
-2 2 -19 -32 -37 -74 -43 -101 -50 -107 -52 -47 -3 72 -2 87 6 109 6 16 6 17
-3 5 -9 -12 -11 -11 -12 10 -3 51 4 77 35 145 18 39 66 148 107 243 66 156 74
170 77 137 2 -20 -1 -49 -6 -63 -5 -15 -10 -70 -11 -122 -2 -89 -5 -101 -51
-209 -28 -63 -48 -116 -46 -118 2 -2 23 41 46 97 24 55 47 100 52 100 5 0 7
-4 4 -8 -2 -4 -8 -46 -11 -92 -8 -103 -20 -162 -41 -202 -9 -16 -14 -32 -11
-34 2 -2 12 15 23 38 17 39 19 40 25 17 5 -16 7 -4 8 36 1 33 6 103 11 155 5
52 12 158 15 235 4 77 8 142 10 146 3 3 7 78 10 165 3 87 10 183 16 213 5 30
9 82 9 115 0 39 8 77 20 105 11 24 18 46 15 49 -3 3 -5 1 -5 -4 0 -6 -6 -18
-13 -29 -13 -17 -14 -16 -11 11 11 98 10 144 -2 144 -15 0 -21 -31 -28 -150
-5 -82 -9 -95 -121 -350 -64 -146 -121 -269 -126 -274 -16 -17 -11 226 6 274
20 56 18 63 -5 20 l-19 -35 -1 68 c0 39 6 83 15 104 8 20 18 50 21 66 3 17 29
86 59 154 29 68 50 123 46 123 -4 0 -32 -55 -61 -122 -29 -68 -57 -127 -62
-132 -4 -6 -8 32 -8 85 0 123 -8 169 -29 169 -14 0 -16 -12 -13 -86 4 -86 2
-95 -38 -194 -12 -30 -17 -50 -12 -45 5 6 18 33 28 60 l19 50 3 -100 c2 -83
-1 -108 -17 -145 -11 -25 -44 -101 -73 -170 l-52 -124 -9 39 c-4 22 -7 66 -5
98 2 31 0 57 -3 57 -4 0 -10 40 -14 88 l-7 88 47 109 c26 61 55 130 65 155 10
25 26 62 34 83 9 20 13 37 8 37 -7 0 -25 -40 -113 -253 -18 -42 -33 -76 -35
-74 -2 2 -8 39 -13 83 -8 76 -7 82 25 162 35 88 28 115 -9 32 -25 -56 -37 -63
-37 -22 0 55 -10 72 -42 72 -23 0 -28 -4 -24 -17 2 -10 8 -53 11 -95 l7 -77
-173 -405 c-96 -223 -177 -406 -180 -406 -3 0 -26 77 -52 170 l-46 171 44 132
c24 73 57 164 75 202 17 39 45 102 60 140 16 39 40 96 54 128 18 40 22 57 13
57 -7 0 -34 -51 -59 -112 -112 -276 -214 -506 -220 -500 -11 11 -58 173 -58
200 0 15 4 21 12 16 7 -4 8 -3 4 4 -7 11 38 135 89 247 13 28 32 71 43 98 l21
47 -38 0 -38 0 -48 -112 c-27 -62 -52 -117 -56 -122 -7 -8 -43 97 -67 194 -8
33 -11 35 -55 38 -26 2 -47 -1 -47 -5 0 -4 6 -28 14 -53 l14 -46 -75 -174
c-40 -96 -92 -218 -115 -270 -23 -52 -47 -110 -55 -128 -13 -31 -15 -32 -30
-16 -9 9 -17 31 -18 50 0 18 -4 36 -8 40 -4 4 -7 23 -8 43 0 32 -16 90 -18 67
-1 -5 -8 -3 -16 4 -18 15 -20 81 -2 99 10 11 9 12 -2 6 -21 -12 -10 68 18 127
11 26 21 50 21 54 0 9 45 108 70 156 11 20 20 39 20 42 0 4 -19 6 -42 6 -40 0
-44 -3 -59 -38 -9 -20 -22 -50 -29 -67 -13 -29 -15 -37 -18 -62 -2 -13 -58
-44 -66 -35 -3 3 -7 19 -7 36 -1 17 -3 23 -6 13 -6 -24 -23 -11 -23 18 0 12
-7 26 -16 29 -12 4 -15 14 -11 34 15 74 29 67 -140 70 -84 2 -153 1 -153 -1 0
-2 7 -18 16 -35 14 -29 14 -35 0 -64 -9 -17 -16 -37 -16 -45 0 -26 -16 -11
-69 67 -30 44 -58 80 -63 80 -6 0 4 -17 20 -37 50 -64 92 -136 92 -157 0 -12
-7 -29 -15 -39 -13 -17 -20 -9 -97 107 l-83 125 -108 1 c-104 0 -107 -1 -97
-19 5 -11 15 -23 20 -26 6 -3 10 -16 10 -29 0 -32 -74 -211 -87 -211 -17 0
-85 93 -78 105 4 6 22 49 40 95 l33 85 -1844 0 -1844 0 0 -3900z m11610 3820
c8 -5 11 -13 6 -17 -5 -4 -11 -2 -13 5 -3 6 -9 12 -14 12 -4 0 -6 -7 -3 -15 9
-22 -4 -18 -16 5 -9 17 -8 20 7 20 10 0 25 -4 33 -10z m-59 -29 c0 8 5 1 10
-16 4 -16 6 -40 3 -52 -5 -20 -9 -22 -22 -11 -11 9 -14 9 -9 1 5 -8 1 -11 -12
-10 -11 0 -18 4 -15 8 2 4 -4 13 -13 20 -12 10 -14 10 -9 2 4 -7 2 -13 -3 -13
-18 0 -12 16 16 49 20 23 30 28 40 19 10 -8 13 -7 14 3z m54 -30 c3 -5 1 -12
-5 -16 -5 -3 -10 1 -10 9 0 18 6 21 15 7z m-6579 -204 c25 -73 15 -134 -49
-292 -54 -135 -122 -292 -142 -327 -16 -27 -33 -8 -84 97 l-48 99 24 60 c14
34 28 66 33 71 4 6 11 21 15 35 4 14 23 61 42 105 44 101 56 129 57 135 4 17
61 131 79 157 l22 33 18 -63 c9 -34 24 -84 33 -110z m6371 156 c-2 -5 -11 -25
-21 -46 -9 -20 -21 -35 -26 -32 -6 3 -24 -22 -41 -57 -29 -59 -38 -68 -142
-137 -229 -153 -555 -353 -567 -349 -5 2 11 44 35 93 l42 90 329 204 c181 112
340 212 354 222 26 19 44 24 37 12z m-5700 -203 c-3 -29 -66 -188 -177 -448
l-174 -404 -17 44 c-10 24 -18 56 -18 71 -1 16 45 135 101 265 55 130 120 282
143 337 24 55 57 132 75 170 17 39 37 81 43 95 9 23 11 21 19 -30 5 -30 7 -75
5 -100z m504 3 c-6 -24 -14 -91 -17 -150 -3 -60 -7 -119 -10 -133 -7 -30 -193
-471 -206 -485 -15 -17 -9 173 7 212 21 49 18 55 -5 13 l-20 -35 2 77 c1 43 4
75 7 73 2 -3 19 30 36 72 43 106 185 433 199 458 10 18 11 16 14 -19 2 -22 -1
-59 -7 -83z m-2167 -78 c-18 -59 -83 -190 -95 -193 -9 -2 -24 12 -34 33 l-19
35 38 77 c21 43 45 89 53 102 l16 25 23 -30 c15 -18 22 -36 18 -49z m1820
-260 c-37 -88 -71 -164 -75 -169 -5 -6 -9 18 -9 56 0 58 7 81 60 204 90 209
84 200 88 129 3 -54 -3 -74 -64 -220z m-275 -417 c-78 -180 -145 -328 -149
-328 -4 0 -19 47 -35 104 l-27 104 22 69 c12 37 84 212 159 388 l136 320 17
-164 18 -165 -141 -328z m-459 473 c11 -42 1 -72 -92 -286 -39 -88 -77 -179
-85 -203 -9 -23 -20 -41 -25 -40 -13 5 -67 128 -68 154 0 21 15 62 90 239 23
55 52 125 65 155 12 30 33 78 45 105 l23 50 19 -70 c10 -38 23 -85 28 -104z
m6030 139 c0 -5 -5 -10 -11 -10 -5 0 -7 5 -4 10 3 6 8 10 11 10 2 0 4 -4 4
-10z m-27 -24 c11 -29 -9 -70 -45 -91 -20 -11 -46 -26 -57 -33 -12 -7 -21 -9
-21 -5 0 12 40 69 40 58 1 -5 7 5 15 24 10 21 20 31 29 28 8 -3 17 1 20 9 4
10 2 12 -6 8 -7 -4 -8 -3 -4 4 10 16 23 15 29 -2z m-148 -112 c-20 -49 -32
-64 -76 -92 -28 -18 -52 -32 -54 -30 -8 8 47 106 72 129 28 26 76 58 80 55 1
-1 -9 -29 -22 -62z m-6430 -76 c14 -29 39 -78 56 -108 17 -30 53 -99 81 -152
l50 -98 -18 -45 c-9 -25 -21 -48 -25 -51 -5 -2 -22 21 -39 53 -36 67 -59 107
-143 252 -33 56 -60 109 -60 116 0 7 10 38 23 69 21 54 23 56 37 36 8 -11 25
-44 38 -72z m5969 -49 c-37 -79 -38 -80 -108 -113 -105 -51 -146 -66 -146 -55
0 18 30 69 41 69 5 0 9 6 7 13 -4 25 166 170 222 189 27 9 22 -21 -16 -103z
m336 97 c0 -3 -12 -32 -26 -65 -21 -48 -38 -69 -76 -97 -46 -32 -49 -33 -43
-12 15 47 39 84 84 130 42 42 61 56 61 44z m203 -12 c12 -4 13 -11 5 -35 -5
-16 -14 -29 -19 -29 -4 0 -6 -6 -3 -13 7 -20 -24 -52 -78 -82 -50 -27 -58 -21
-33 23 8 15 20 40 26 57 7 21 12 26 18 16 6 -10 10 -9 15 4 8 23 8 27 -4 20
-6 -3 -7 1 -4 9 5 12 11 13 24 6 23 -12 40 -13 21 -1 -7 5 -10 14 -7 20 8 12
17 14 39 5z m-5868 -143 l28 -90 -98 -236 c-54 -130 -102 -238 -105 -240 -4
-2 -23 32 -44 75 l-37 80 39 87 c21 49 69 163 107 255 38 92 71 165 75 163 3
-2 19 -44 35 -94z m5500 -4 c-20 -44 -36 -61 -72 -83 -39 -23 -43 -28 -29 -36
13 -7 21 -5 31 9 24 30 17 5 -10 -36 -13 -22 -27 -52 -31 -66 -4 -15 -15 -30
-25 -32 -11 -3 -19 -9 -19 -13 0 -4 -11 -12 -25 -18 -14 -6 -25 -10 -25 -8 0
14 69 131 77 131 20 0 26 14 14 29 -21 25 28 116 85 157 27 20 50 33 52 29 1
-3 -9 -32 -23 -63z m225 58 c0 -20 -34 -84 -43 -78 -6 3 -7 1 -3 -6 9 -13 -19
-61 -35 -61 -6 0 -22 -9 -36 -20 -14 -11 -30 -20 -35 -20 -11 0 1 44 13 48 5
2 9 11 9 21 0 26 61 101 82 101 10 0 18 5 18 10 0 6 7 10 15 10 8 0 15 -2 15
-5z m-5163 -144 c-2 -31 -8 -65 -12 -75 -6 -14 -5 -17 3 -12 8 5 11 1 10 -11
-2 -10 1 -62 5 -115 l8 -97 -118 -275 c-65 -152 -121 -276 -124 -276 -3 0 -15
34 -26 75 l-20 75 28 72 c36 92 31 100 -6 11 -15 -38 -31 -72 -35 -76 -4 -5
-12 12 -18 36 -11 43 -10 48 67 228 118 275 220 510 228 523 11 17 16 -20 10
-83z m5009 47 c-45 -105 -60 -131 -76 -135 -10 -3 -17 -10 -14 -16 2 -7 -6
-13 -21 -13 -24 -2 -34 10 -16 20 4 3 18 32 31 65 16 43 32 66 58 85 48 34 55
33 38 -6z m-7381 -15 c19 -21 35 -42 35 -48 0 -11 -71 -198 -79 -207 -3 -4
-24 10 -47 30 l-41 38 45 112 c24 62 46 112 49 112 2 0 20 -17 38 -37z m6858
-47 c-20 -41 -40 -73 -45 -70 -4 3 -8 1 -8 -5 0 -21 -423 -281 -436 -268 -3 2
7 30 22 60 27 55 31 58 236 187 114 71 211 130 215 130 5 0 14 9 21 20 7 11
17 20 22 20 5 0 -7 -33 -27 -74z m734 6 c-7 -22 -16 -44 -20 -48 -4 -4 -7 -14
-7 -21 0 -18 -61 -74 -72 -67 -5 3 -6 18 -3 34 4 20 2 29 -10 34 -15 5 -15 9
4 39 11 17 26 31 31 29 6 -1 13 5 16 13 4 8 15 15 26 15 12 0 22 9 25 21 5 17
8 18 14 7 4 -8 2 -33 -4 -56z m-6557 -24 c0 -10 6 -31 14 -46 13 -25 12 -30
-8 -54 l-21 -27 -1 24 c-1 14 2 23 6 20 9 -6 23 25 15 33 -3 3 -5 0 -5 -7 0
-7 -4 -10 -9 -7 -5 3 -20 -25 -34 -62 l-25 -67 -16 37 c-17 40 -17 40 28 141
22 50 29 57 41 47 8 -7 15 -21 15 -32z m834 -84 c9 -33 16 -73 16 -88 0 -25
-104 -285 -152 -380 -19 -37 -20 -38 -37 -20 -10 11 -26 38 -35 61 l-18 42 42
103 c85 209 153 359 160 351 4 -4 14 -35 24 -69z m5576 63 c0 -7 -4 -17 -8
-22 -5 -6 -17 -35 -27 -65 -16 -51 -22 -58 -76 -88 -33 -18 -59 -31 -59 -29 0
22 35 110 54 135 43 59 116 102 116 69z m30 -62 c-6 -16 -6 -25 0 -25 19 0 10
-18 -12 -23 -30 -8 -31 -6 -13 36 17 42 40 52 25 12z m-199 -25 c12 0 5 -26
-27 -95 -17 -37 -32 -55 -58 -68 -42 -20 -45 -12 -16 48 11 22 19 43 20 48 1
20 46 76 58 72 8 -3 18 -5 23 -5z m-521 -24 c0 -2 -15 -37 -34 -77 -45 -99
-63 -139 -75 -172 -6 -15 -15 -27 -20 -27 -5 0 -9 -8 -9 -17 2 -23 -120 -278
-129 -270 -3 4 -12 -1 -19 -11 -25 -35 -26 -1 0 42 15 25 21 43 14 40 -7 -3
-26 -28 -43 -57 -31 -52 -103 -110 -88 -70 3 10 15 29 25 42 24 31 23 44 -2
29 -11 -7 -20 -20 -20 -30 0 -31 -53 -79 -131 -119 -75 -37 -78 -38 -69 -15 5
13 7 26 4 29 -3 2 14 45 36 93 23 49 69 150 102 224 61 139 97 198 78 130 l-9
-35 25 30 c58 70 72 85 83 85 8 0 6 -10 -4 -31 -9 -17 -14 -33 -11 -36 2 -3
11 8 20 25 16 31 85 97 93 88 3 -2 -10 -34 -27 -71 -17 -37 -30 -69 -27 -71 6
-6 54 67 62 96 12 40 82 127 93 115 2 -2 -6 -25 -18 -52 -46 -101 -51 -115
-39 -108 6 4 20 28 32 54 25 57 86 151 98 151 5 0 9 -2 9 -4z m753 -16 c-3
-11 -13 -20 -23 -20 -10 0 -27 -3 -37 -6 -10 -3 0 6 22 20 22 14 41 26 42 26
0 0 -1 -9 -4 -20z m-6327 -85 c4 -18 -46 -158 -65 -178 -4 -4 -17 15 -29 42
l-23 49 36 78 36 79 20 -25 c10 -14 22 -34 25 -45z m5982 57 c-1 -4 -14 -37
-28 -74 -21 -58 -30 -69 -74 -97 -49 -30 -69 -34 -49 -9 6 7 21 37 34 67 24
56 50 89 84 109 23 13 38 15 33 4z m-5700 -54 c10 -23 9 -28 -3 -28 -8 0 -15
-8 -15 -17 -1 -13 -5 -10 -16 10 -19 35 -10 98 10 76 7 -8 18 -26 24 -41z
m-1148 -40 c0 -5 -16 -56 -36 -114 l-37 -106 -24 24 -24 24 37 113 36 113 24
-23 c13 -12 24 -26 24 -31z m1608 13 c17 -54 15 -86 -7 -134 -21 -48 -119
-280 -132 -316 -12 -30 -31 -16 -48 36 -12 37 -10 44 57 198 38 88 77 181 87
208 10 26 21 47 25 47 4 0 12 -17 18 -39z m4421 12 c-45 -120 -57 -137 -130
-176 -39 -21 -74 -36 -77 -33 -8 9 25 74 61 120 24 31 137 116 153 116 2 0 -1
-12 -7 -27z m992 9 c-5 -10 -22 -24 -38 -32 -15 -8 -31 -19 -35 -25 -5 -6 -8
-6 -8 1 0 21 58 73 83 74 4 0 3 -8 -2 -18z m-6391 1 c0 -5 -5 -15 -10 -23 -8
-12 -10 -11 -10 8 0 12 5 22 10 22 6 0 10 -3 10 -7z m22 -45 c-7 -7 -12 -8
-12 -2 0 14 12 26 19 19 2 -3 -1 -11 -7 -17z m1445 -90 c-3 -40 -3 -104 2
-143 l8 -70 -94 -219 c-52 -120 -100 -230 -107 -243 -13 -25 -13 -25 -26 22
-15 55 -16 61 -6 95 6 22 5 21 -10 -5 l-18 -30 -8 33 c-8 29 2 59 86 255 120
283 163 377 172 377 4 0 4 -33 1 -72z m4873 67 c0 -2 -10 -9 -22 -15 -22 -11
-22 -10 -4 4 21 17 26 19 26 11z m-99 -18 c-7 -7 -14 -8 -21 -1 -6 6 -2 10 12
11 16 2 18 -1 9 -10z m-6121 -52 c0 -8 4 -15 8 -15 5 0 15 -11 22 -24 10 -20
10 -31 0 -55 -7 -17 -16 -31 -20 -31 -5 0 -18 16 -29 36 -19 32 -20 40 -9 70
12 35 28 46 28 19z m913 -54 c11 -37 13 -60 6 -72 -13 -25 -11 -33 5 -20 11 9
16 3 25 -33 6 -25 11 -52 11 -61 0 -18 -127 -324 -141 -339 -11 -13 -50 55
-46 81 2 13 0 20 -8 17 -19 -8 -55 85 -44 114 46 120 164 381 169 375 4 -4 15
-32 23 -62z m-759 12 c-13 -20 -24 -44 -23 -52 3 -36 -1 -45 -13 -33 -9 9 -5
25 17 71 15 33 32 58 36 55 4 -2 -3 -21 -17 -41z m4909 0 c-34 -83 -74 -153
-85 -150 -7 1 -12 -5 -13 -13 0 -8 -8 -31 -17 -50 -8 -19 -39 -87 -67 -150
-94 -209 -113 -242 -151 -262 -115 -58 -221 -107 -218 -100 32 66 168 374 168
379 0 3 11 21 25 39 15 19 20 34 14 36 -7 2 -3 21 12 53 22 46 35 56 164 137
77 48 149 94 160 102 11 8 21 15 22 16 1 0 -5 -17 -14 -37z m-4546 -135 c32
-62 59 -119 61 -126 4 -14 -28 -102 -37 -102 -3 0 -14 14 -23 31 -11 19 -22
27 -30 23 -7 -5 -9 -2 -6 8 3 8 -13 51 -36 95 l-42 81 20 51 c12 28 24 51 28
51 4 0 34 -51 65 -112z m4163 34 c0 -9 -9 -23 -20 -30 -20 -12 -21 -12 -5 18
18 34 25 38 25 12z m-4964 -79 c-10 -10 -19 5 -10 18 6 11 8 11 12 0 2 -7 1
-15 -2 -18z m4979 -29 c-8 -20 -15 -38 -15 -40 0 -7 -80 -44 -95 -44 -9 0 -15
6 -13 13 4 11 123 107 134 107 2 0 -3 -16 -11 -36z m-3320 -101 l-2 -128 -85
-193 c-47 -106 -88 -195 -91 -199 -4 -3 -12 15 -19 40 -6 25 -15 44 -20 41 -4
-3 -8 3 -9 13 0 10 -2 26 -4 36 -2 9 1 17 6 17 5 0 9 6 9 13 0 17 203 487 211
487 3 0 5 -57 4 -127z m-1716 38 c-30 -24 -35 -20 -19 19 12 28 15 30 28 16
14 -13 13 -17 -9 -35z m727 15 c3 -13 1 -39 -4 -57 -12 -43 -75 -179 -83 -179
-16 0 -25 46 -14 72 9 23 13 26 25 15 12 -10 12 -9 1 5 -14 19 -11 33 25 114
26 59 40 67 50 30z m598 2 c3 -13 6 -32 6 -44 0 -26 -125 -327 -138 -332 -5
-1 -15 11 -20 28 -10 27 -4 48 61 200 40 93 75 170 78 170 4 0 9 -10 13 -22z
m-319 -167 c-19 -43 -43 -53 -65 -26 -19 23 -15 61 11 117 l23 50 25 -50 c24
-51 24 -51 6 -91z m3859 72 c-9 -21 -21 -50 -27 -65 -10 -25 -17 -28 -54 -28
-39 0 -43 -2 -43 -26 0 -14 4 -23 10 -19 5 3 7 12 3 20 -4 11 3 15 27 15 38 0
39 1 -37 -160 -113 -242 -97 -220 -196 -269 -48 -24 -90 -42 -92 -39 -3 3 37
101 90 219 52 118 95 219 95 225 0 6 10 20 23 31 25 23 198 133 210 133 4 0 0
-17 -9 -37z m-4076 -24 c12 -19 10 -30 -21 -93 -19 -39 -37 -84 -41 -99 -7
-30 -23 -32 -39 -6 -9 15 16 91 61 186 18 39 23 40 40 12z m73 -22 c-10 -9
-11 -8 -5 6 3 10 9 15 12 12 3 -3 0 -11 -7 -18z m-45 -39 c-6 -30 -5 -31 8
-13 15 20 15 20 16 0 0 -24 -80 -215 -91 -215 -12 0 -22 79 -12 93 5 7 24 47
43 90 35 82 46 97 36 45z m3798 -30 c-4 -13 -28 -68 -54 -123 -27 -55 -73
-158 -104 -230 -52 -122 -76 -156 -112 -161 -8 -1 -14 -1 -14 0 0 13 144 340
159 361 4 6 13 28 19 50 14 44 32 69 77 102 37 28 38 28 29 1z m-3551 -73 c20
-42 37 -81 37 -88 0 -22 -237 -570 -243 -561 -3 5 -12 44 -21 86 -9 42 -20 87
-24 100 -15 38 -3 55 19 27 22 -30 37 -18 15 13 -20 28 -20 36 0 84 l16 38 19
-25 c21 -27 25 -13 7 26 -9 19 -8 34 2 65 15 45 26 50 40 18 6 -17 9 -18 9 -6
1 9 -3 20 -9 23 -15 9 -12 42 6 77 16 30 17 31 30 13 20 -27 30 -10 11 19 -15
23 -15 28 2 78 27 77 32 88 40 88 4 0 23 -34 44 -75z m-434 -79 c22 -63 26
-85 15 -75 -20 17 -54 83 -54 107 0 10 -5 23 -11 29 -7 7 -9 19 -5 29 10 26
21 8 55 -90z m3787 -118 c-51 -112 -101 -219 -111 -239 -13 -27 -32 -43 -82
-68 -36 -18 -68 -30 -71 -27 -3 3 29 83 71 178 41 95 81 188 89 206 9 24 37
48 103 92 50 32 91 59 92 59 0 1 -41 -90 -91 -201z m2024 189 c0 -14 -95 -185
-110 -198 -23 -20 -198 -84 -207 -76 -8 9 32 105 67 157 27 41 38 48 127 82
91 34 123 43 123 35z m-5860 -57 c-1 -12 -4 -11 -15 4 -8 10 -12 23 -8 29 7
11 23 -12 23 -33z m48 -127 c16 -41 21 -48 17 -24 -4 29 -3 32 11 20 23 -19
45 -66 38 -83 -8 -22 -19 -20 -33 7 -11 21 -11 21 -4 -3 23 -84 -5 -102 -37
-23 -44 114 -80 216 -80 227 1 24 67 -66 88 -121z m535 61 c7 -24 -5 -60 -73
-224 -45 -107 -103 -244 -128 -305 -26 -60 -49 -112 -53 -115 -3 -3 -8 -10
-10 -17 -3 -8 -12 -6 -29 8 -25 19 -25 19 -5 34 18 14 21 14 32 -2 12 -15 13
-14 13 9 0 18 -6 28 -19 30 -17 3 -4 38 112 311 73 169 136 306 142 304 5 -2
13 -17 18 -33z m3123 -16 c-115 -267 -189 -425 -203 -435 -40 -30 -44 -4 -9
65 37 73 129 292 125 296 -2 2 -43 -82 -91 -188 -86 -190 -87 -191 -135 -218
-26 -14 -53 -27 -60 -27 -6 -1 15 59 48 132 34 72 70 156 81 185 18 48 28 59
92 101 39 26 88 64 109 84 47 46 62 47 43 5z m1710 -103 l-51 -105 -59 -20
c-33 -11 -61 -18 -63 -16 -4 3 71 183 80 192 7 7 121 53 133 54 6 0 -12 -47
-40 -105z m-4793 -20 l27 -55 -116 -273 c-63 -149 -119 -276 -124 -281 -13
-13 -56 29 -64 60 -5 17 9 61 43 142 156 374 194 462 200 462 4 0 19 -25 34
-55z m6117 45 c0 -6 -10 -30 -21 -53 -12 -23 -41 -88 -64 -144 -23 -56 -60
-131 -81 -167 l-39 -64 -110 -22 c-60 -11 -126 -25 -145 -30 -20 -6 -38 -6
-44 0 -5 5 18 63 57 142 35 73 78 162 94 197 l30 64 144 43 c155 45 179 50
179 34z m-3365 -257 c-75 -173 -116 -245 -132 -229 -3 2 11 40 30 83 64 143
77 176 73 180 -2 2 -30 -55 -62 -128 -57 -127 -59 -131 -106 -155 -26 -13 -48
-23 -48 -21 0 2 33 80 74 173 72 163 76 170 123 200 26 18 66 48 87 68 21 20
41 35 43 32 2 -2 -34 -93 -82 -203z m1650 147 c7 0 16 6 19 13 3 6 3 -1 0 -18
-7 -37 -11 -42 -26 -27 -8 8 -16 2 -31 -26 -28 -54 -40 -63 -24 -17 23 64 41
98 45 86 2 -6 10 -11 17 -11z m-4335 -11 c8 -14 8 -29 2 -49 -8 -21 -7 -30 1
-33 7 -3 20 -20 30 -40 l19 -34 -103 -242 c-57 -132 -107 -241 -111 -241 -3 0
-20 11 -36 25 -26 22 -31 23 -36 9 -5 -13 -9 -14 -21 -4 -8 7 -15 17 -15 22 0
11 252 608 257 608 1 0 7 -9 13 -21z m-536 -24 c3 -8 15 -15 26 -15 29 0 22
-34 -7 -38 -24 -4 -60 39 -48 58 9 14 22 12 29 -5z m4733 -17 c-28 -66 -66
-123 -96 -147 -35 -27 -37 -34 19 86 29 62 54 90 83 92 4 1 1 -14 -6 -31z
m-106 -88 l-46 -90 -64 -20 c-35 -11 -67 -20 -72 -20 -5 0 -2 16 6 36 8 20 12
41 8 47 -3 5 -1 7 4 4 11 -7 28 37 24 62 -1 7 2 10 7 7 6 -3 12 -1 14 5 4 12
148 69 159 63 3 -2 -15 -44 -40 -94z m-1531 54 c0 -3 -9 -24 -19 -47 -10 -23
-44 -103 -76 -177 -31 -74 -62 -138 -68 -142 -21 -13 -28 -9 -17 11 5 11 10
23 10 28 -1 4 -8 -4 -16 -19 -15 -29 -101 -82 -92 -56 3 7 34 78 69 157 56
127 67 147 102 170 22 14 51 38 66 54 24 25 41 34 41 21z m-3096 -34 c11 0 16
-6 14 -17 -2 -13 -11 -17 -28 -14 -28 3 -40 17 -40 45 0 18 1 18 18 3 10 -10
26 -17 36 -17z m4436 -84 c-33 -79 -46 -97 -56 -73 -11 29 65 167 84 152 2 -2
-11 -37 -28 -79z m-4370 43 c0 -6 -5 -7 -11 -3 -7 4 -2 -6 9 -22 33 -45 56
-150 41 -185 -13 -32 -21 -36 -38 -15 -23 28 -61 139 -55 162 7 26 19 31 28
12 3 -7 3 -3 0 10 -7 27 4 64 17 57 5 -4 9 -11 9 -16z m557 -51 c-3 -10 4 -35
15 -54 l20 -34 -92 -215 c-51 -118 -95 -215 -98 -215 -3 0 -16 10 -29 22 -13
12 -23 16 -23 10 0 -17 -19 -15 -26 2 -5 12 62 177 178 445 33 74 43 90 50 76
6 -9 8 -26 5 -37z m3083 48 c0 -3 -4 -8 -10 -11 -5 -3 -10 -1 -10 4 0 6 5 11
10 11 6 0 10 -2 10 -4z m614 -18 c-3 -13 -13 -34 -20 -48 l-14 -25 6 26 c3 15
1 30 -5 34 -6 3 -9 11 -5 16 3 5 10 7 15 4 5 -4 9 -1 9 4 0 6 5 11 11 11 6 0
8 -9 3 -22z m1136 12 c0 -6 -24 -65 -53 -133 -30 -67 -59 -136 -66 -154 -20
-50 -49 -69 -128 -82 -93 -14 -93 -14 -93 8 0 14 123 297 134 308 3 3 186 60
199 62 4 0 7 -4 7 -9z m-2533 -42 c-81 -193 -130 -304 -136 -311 -4 -4 -17 -9
-29 -12 -11 -2 -30 -9 -42 -15 -12 -6 -24 -10 -26 -7 -3 2 23 68 57 146 54
123 67 144 98 163 20 12 46 32 58 45 30 32 36 29 20 -9z m613 18 c0 -2 -21
-48 -46 -102 -44 -97 -68 -134 -86 -134 -14 0 -9 59 8 91 8 17 13 36 11 42 -3
7 -17 -16 -32 -50 -15 -35 -31 -63 -35 -63 -4 0 -11 -12 -15 -27 -5 -23 -8
-25 -15 -12 -20 36 10 125 60 179 33 35 50 39 42 8 -3 -14 -2 -19 6 -14 7 4
12 14 12 21 0 8 17 26 37 40 35 23 53 31 53 21z m743 -2 c8 -8 -3 -34 -14 -34
-5 0 -9 9 -9 20 0 19 11 26 23 14z m-679 -29 c-4 -8 -11 -15 -16 -15 -6 0 -5
6 2 15 7 8 14 15 16 15 2 0 1 -7 -2 -15z m529 -72 c-42 -83 -40 -81 -96 -98
l-46 -14 5 37 4 37 -16 -37 c-14 -32 -24 -39 -67 -52 -28 -8 -53 -13 -55 -11
-2 2 8 30 23 63 26 57 27 59 87 77 33 10 76 26 96 35 99 47 105 43 65 -37z
m396 -36 c-23 -48 -37 -66 -55 -70 -23 -4 -23 -3 12 64 30 57 57 84 72 73 2
-1 -11 -31 -29 -67z m91 58 c0 -12 -33 -70 -44 -77 -16 -11 -26 -10 -26 3 0 5
4 8 9 5 5 -4 13 8 16 26 4 18 9 36 12 41 5 8 33 10 33 2z m464 -27 c-11 -38
-134 -277 -150 -293 -16 -16 -84 -21 -84 -6 0 4 14 39 31 77 17 38 39 89 50
114 36 85 44 94 89 112 62 24 73 23 64 -4z m-1754 -14 c-18 -46 -31 -64 -46
-64 -17 0 -12 29 12 68 21 32 47 30 34 -4z m1140 13 c0 -2 -11 -26 -25 -54
-24 -51 -41 -70 -52 -59 -7 6 23 82 40 101 10 12 37 21 37 12z m-3780 -29 c0
-12 5 -36 11 -53 11 -28 5 -46 -65 -210 -43 -99 -81 -184 -86 -189 -6 -6 -15
-4 -23 3 -8 6 -22 8 -32 5 -15 -6 -17 -3 -11 20 6 23 134 327 176 419 16 33
30 35 30 5z m2554 -45 c-15 -32 -33 -75 -42 -95 -9 -23 -22 -38 -32 -38 -10 0
-20 -9 -23 -20 -3 -11 -10 -20 -15 -20 -6 0 8 42 30 93 22 50 42 97 44 103 5
11 40 32 56 33 4 1 -4 -25 -18 -56z m1115 -7 c-11 -26 -23 -45 -26 -43 -6 7
16 78 30 96 20 24 18 -5 -4 -53z m-546 11 c-43 -93 -49 -102 -76 -105 -15 -2
-27 -1 -27 2 0 3 12 30 26 59 18 36 36 57 53 64 33 12 37 9 24 -20z m-639 -21
c-3 -14 -10 -26 -15 -26 -5 0 -9 -8 -10 -17 -1 -34 -54 -126 -76 -134 -20 -7
-21 -6 -13 9 5 9 23 48 40 87 28 63 68 121 77 111 2 -2 1 -15 -3 -30z m-93
-70 c-17 -36 -33 -66 -35 -66 -8 0 0 51 13 85 11 28 40 59 48 51 2 -2 -10 -33
-26 -70z m209 65 c-1 -17 -17 -29 -29 -22 -7 5 -11 13 -8 18 7 10 37 13 37 4z
m402 -58 c-19 -38 -37 -70 -39 -73 -2 -2 -28 -7 -56 -11 l-52 -6 48 -2 c26 0
47 -5 47 -11 0 -5 -4 -10 -8 -10 -5 0 -14 -18 -21 -41 -7 -22 -19 -43 -26 -46
-10 -3 -13 -13 -9 -27 8 -34 -71 -185 -104 -198 -33 -13 -131 -23 -116 -11 7
4 15 25 18 45 3 20 21 67 39 105 l33 68 60 -1 c41 -1 52 1 34 6 -14 4 -39 8
-57 9 l-32 1 18 43 c10 23 29 48 42 54 18 10 20 13 7 13 -23 0 -22 5 5 60 20
41 28 46 97 72 112 41 114 40 72 -39z m378 42 c0 -3 -11 -28 -25 -55 -23 -46
-38 -62 -60 -66 -5 -1 -22 -5 -37 -9 l-28 -7 22 53 c27 68 29 70 75 79 53 11
53 11 53 5z m-1064 -109 c-28 -61 -50 -96 -60 -96 -20 0 -20 4 0 41 8 17 13
33 11 36 -3 2 -15 -18 -27 -46 -13 -27 -31 -52 -41 -54 -17 -5 -17 -3 1 42 28
70 61 141 65 141 2 0 11 3 20 6 15 6 15 4 1 -31 -9 -21 -15 -40 -12 -42 2 -2
11 14 19 36 14 35 55 77 64 67 3 -2 -16 -47 -41 -100z m920 26 c-24 -47 -56
-76 -56 -49 1 24 39 95 57 105 27 16 27 -1 -1 -56z m-436 29 c-17 -60 -49
-121 -64 -121 -9 0 -16 5 -16 11 0 8 -5 7 -15 -1 -14 -11 -14 -10 -5 16 21 54
53 102 65 98 7 -3 15 2 18 10 11 29 26 17 17 -13z m926 -99 c-35 -70 -70 -133
-78 -139 -10 -8 -102 -33 -123 -33 -2 0 24 60 59 133 l63 132 59 17 c32 9 65
17 72 17 7 1 -16 -54 -52 -127z m-526 109 c0 -5 -9 -30 -21 -55 -19 -43 -42
-66 -55 -54 -9 10 46 118 61 118 8 0 15 -4 15 -9z m-3744 -15 c14 -15 19 -36
8 -36 -16 0 -44 23 -44 35 0 19 17 19 36 1z m2753 -78 c-17 -40 -42 -84 -55
-98 l-25 -25 9 25 c20 52 63 144 73 157 27 32 26 8 -2 -59z m1375 -7 c-40 -80
-58 -90 -24 -14 25 56 50 97 56 90 3 -2 -12 -37 -32 -76z m-1433 -32 c-34 -72
-46 -88 -78 -103 -35 -17 -38 -17 -50 0 -7 10 -13 25 -13 34 0 9 -7 25 -15 36
-21 27 -19 31 18 43 17 6 64 26 102 45 39 19 71 33 73 32 1 -2 -16 -41 -37
-87z m503 -46 c-157 -329 -153 -323 -177 -322 -12 1 -37 -2 -54 -6 -21 -5 -33
-4 -33 3 0 10 135 317 168 381 13 27 30 39 77 57 33 13 65 23 72 23 7 1 -18
-61 -53 -136z m818 95 c-5 -7 -16 -32 -22 -55 -7 -23 -17 -40 -21 -37 -13 8
-11 44 2 44 6 0 9 7 5 15 -3 8 2 21 10 30 19 19 41 21 26 3z m369 -15 c-12
-20 -14 -14 -5 12 4 9 9 14 11 11 3 -2 0 -13 -6 -23z m-1301 13 c0 -6 -110
-256 -157 -358 -38 -81 -39 -83 -61 -69 -19 12 53 181 77 181 11 0 12 3 4 8
-8 5 -3 26 18 76 16 38 28 70 26 72 -4 4 -76 -148 -128 -269 -18 -43 -38 -82
-43 -86 -6 -5 -30 -12 -54 -16 -50 -8 -55 -30 43 190 37 83 69 157 72 166 3
10 32 27 66 39 34 13 75 33 90 46 26 22 47 31 47 20z m-3050 -46 c0 -14 -14
-12 -28 2 -19 19 -14 30 8 18 11 -6 20 -15 20 -20z m3830 26 c0 -3 -24 -56
-54 -119 -36 -78 -60 -117 -74 -121 -47 -15 -62 -15 -62 1 0 29 95 232 110
237 21 5 80 7 80 2z m-156 -27 c4 6 13 11 21 11 10 0 3 -25 -26 -89 -21 -49
-39 -93 -39 -97 -1 -5 -10 -20 -21 -33 -16 -19 -22 -22 -29 -12 -6 11 -9 11
-16 -1 -12 -21 -54 -33 -54 -16 0 16 78 198 93 217 16 19 51 30 58 19 4 -7 9
-6 13 1z m-3630 -24 c11 -8 16 -21 12 -30 -5 -13 -9 -13 -28 -3 -13 7 -24 13
-26 14 -5 2 10 34 17 34 3 0 14 -7 25 -15z m3196 0 c0 -16 -30 -75 -39 -75 -5
0 -16 -3 -25 -6 -20 -8 -20 4 -1 50 12 28 21 36 40 36 14 0 25 -2 25 -5z
m-410 -11 c0 -6 -80 -189 -137 -314 -29 -63 -36 -72 -44 -57 -12 20 -5 40 54
167 19 41 43 97 54 123 18 49 46 87 63 87 6 0 10 -3 10 -6z m1483 -19 c-3 -9
-8 -14 -10 -11 -3 3 -2 9 2 15 9 16 15 13 8 -4z m-833 -26 c0 -10 -4 -19 -8
-19 -4 0 -8 -9 -9 -21 -2 -26 -45 -98 -73 -124 l-23 -20 8 25 c4 14 25 62 46
108 36 78 59 98 59 51z m-3446 -1 c16 -27 -14 -54 -43 -39 -18 10 -19 15 -9
37 13 27 35 28 52 2z m-1474 -9 c0 -6 -4 -7 -10 -4 -5 3 -10 11 -10 16 0 6 5
7 10 4 6 -3 10 -11 10 -16z m1530 4 c0 -22 -20 -55 -20 -34 0 11 -3 11 -15 1
-20 -16 -19 0 1 28 18 26 34 29 34 5z m-1513 -15 c-3 -8 -6 -5 -6 6 -1 11 2
17 5 13 3 -3 4 -12 1 -19z m4180 10 c-31 -74 -111 -245 -117 -252 -11 -11 -31
29 -32 62 0 15 16 61 35 103 28 60 42 79 64 87 39 14 56 14 50 0z m-3964 -12
c30 -7 33 -14 15 -39 -14 -17 -118 -36 -118 -21 0 5 9 24 20 42 14 22 26 32
38 29 9 -3 29 -8 45 -11z m-253 0 c0 -3 -4 -8 -10 -11 -5 -3 -10 -1 -10 4 0 6
5 11 10 11 6 0 10 -2 10 -4z m4085 -66 c-19 -39 -32 -57 -39 -50 -11 11 19 88
43 107 26 23 25 4 -4 -57z m565 24 c0 -31 -83 -174 -101 -174 -4 0 -10 7 -13
16 -8 21 62 172 83 177 21 5 31 -1 31 -19z m-601 -18 c-15 -31 -25 -33 -32 -5
-4 14 1 23 16 28 29 11 30 9 16 -23z m-2486 -60 c4 -10 1 -13 -9 -9 -15 6 -19
23 -5 23 5 0 11 -7 14 -14z m17 -56 c0 -5 -2 -10 -4 -10 -3 0 -8 5 -11 10 -3
6 -1 10 4 10 6 0 11 -4 11 -10z m75 0 c3 -5 -1 -10 -9 -10 -9 0 -16 5 -16 10
0 6 4 10 9 10 6 0 13 -4 16 -10z m-55 -30 c-8 -5 -17 -6 -20 -3 -3 3 1 8 8 10
6 3 9 10 6 16 -4 7 -1 7 7 -1 12 -11 12 -14 -1 -22z m3045 -20 c-3 -5 -10 -10
-16 -10 -5 0 -9 5 -9 10 0 6 7 10 16 10 8 0 12 -4 9 -10z m-3010 -20 c-3 -5
-13 -10 -21 -10 -8 0 -14 5 -14 10 0 6 9 10 21 10 11 0 17 -4 14 -10z m-1722
-47 c-7 -2 -19 -2 -25 0 -7 3 -2 5 12 5 14 0 19 -2 13 -5z m1732 -13 c3 -5 1
-10 -4 -10 -6 0 -11 5 -11 10 0 6 2 10 4 10 3 0 8 -4 11 -10z m-1748 -8 c8 -5
1 -33 -25 -97 -31 -74 -41 -91 -61 -93 -17 -3 -21 0 -15 10 6 10 4 10 -9 -1
-24 -19 -22 -10 25 95 41 91 54 105 85 86z m4521 -94 c-22 -51 -45 -105 -51
-120 -9 -23 -18 -28 -45 -28 -29 0 -33 3 -27 18 15 38 15 46 0 20 -19 -33 -62
-34 -57 -2 7 42 66 155 78 150 6 -2 14 4 17 15 3 10 12 19 21 19 15 0 15 -3 1
-36 -8 -20 -15 -39 -15 -43 0 -3 -4 0 -8 6 -5 8 -8 -1 -8 -22 0 -34 1 -33 35
31 31 60 54 82 88 83 6 1 -6 -38 -29 -91z m672 73 c0 -28 -66 -161 -87 -176
-14 -10 -73 -17 -73 -9 0 5 57 138 71 167 17 32 24 37 54 37 28 0 35 -4 35
-19z m-4962 -12 c2 -9 -13 -50 -32 -92 l-35 -77 -40 0 c-21 0 -46 3 -55 6 -17
6 -16 9 33 117 l31 68 47 -3 c34 -2 49 -8 51 -19z m4156 -13 c-3 -9 -10 -16
-16 -16 -5 0 -6 -5 -3 -10 4 -6 -7 -41 -25 -77 -27 -60 -32 -65 -46 -51 -13
13 -11 23 20 90 21 48 41 78 53 80 23 5 25 4 17 -16z m-75 -44 c-23 -56 -30
-60 -49 -37 -10 12 -8 21 9 49 18 28 46 48 59 41 1 -1 -7 -25 -19 -53z m568
41 c-15 -18 -17 -22 -17 -44 0 -5 -5 -7 -10 -4 -6 3 -13 -1 -16 -9 -8 -22 -25
-20 -18 2 21 63 27 72 52 72 23 0 24 -1 9 -17z m-3124 -19 c-4 -10 -9 -12 -15
-6 -12 12 -1 35 12 27 5 -3 6 -13 3 -21z m2847 11 c0 -24 -29 -89 -37 -81 -4
3 -1 12 5 18 15 15 16 32 2 23 -5 -3 -10 1 -10 10 0 8 7 18 15 21 8 4 12 10 9
15 -3 5 0 9 5 9 6 0 11 -7 11 -15z m104 -7 c-10 -32 -74 -168 -79 -168 -5 0 9
47 28 93 9 20 12 37 7 37 -5 0 -12 -9 -15 -20 -3 -11 -10 -20 -15 -20 -5 0 -1
18 7 40 15 38 33 53 33 28 0 -7 7 -2 16 10 20 28 27 28 18 0z m-4034 -3 c0
-23 -61 -155 -72 -155 -5 0 -6 -4 -3 -10 11 -18 -15 -50 -41 -50 -17 0 -24 4
-21 13 48 116 82 194 90 205 13 17 47 15 47 -3z m3590 11 c0 -3 -4 -8 -10 -11
-5 -3 -10 -1 -10 4 0 6 5 11 10 11 6 0 10 -2 10 -4z m-2394 -73 c-9 -22 -33 1
-33 31 0 23 0 23 19 4 11 -11 17 -26 14 -35z m-78 40 c-10 -2 -18 -9 -18 -14
0 -6 4 -8 9 -4 12 7 -5 -55 -18 -68 -6 -6 -12 4 -16 27 -8 42 6 67 39 65 17
-1 17 -2 4 -6z m-1477 -30 c-12 -20 -14 -14 -5 12 4 9 9 14 11 11 3 -2 0 -13
-6 -23z m425 -69 c-4 -16 -14 -24 -29 -25 -17 -1 -18 -2 -4 -6 20 -5 20 -5 5
-38 -8 -18 -19 -25 -40 -25 -15 0 -28 3 -28 8 0 4 17 42 37 85 37 77 37 77 51
51 8 -14 11 -37 8 -50z m1084 57 c0 -11 5 -21 12 -23 7 -3 9 -14 4 -32 -6 -23
-9 -26 -22 -15 -8 7 -13 18 -10 26 3 7 2 13 -3 13 -5 0 -11 -13 -13 -29 -3
-21 0 -28 11 -27 11 1 15 -6 13 -23 -3 -32 -9 -38 -24 -23 -18 18 -20 73 -3
98 8 13 15 30 15 39 0 8 5 15 10 15 6 0 10 -9 10 -19z m-1549 -74 c-10 -9 -11
-8 -5 6 3 10 9 15 12 12 3 -3 0 -11 -7 -18z m1584 -8 c-4 -6 1 -16 10 -23 15
-10 15 -16 6 -35 -7 -12 -16 -19 -20 -16 -12 7 -12 85 0 85 6 0 7 -5 4 -11z
m-1975 -11 c0 6 9 12 20 12 26 0 25 -18 0 -45 -14 -15 -29 -21 -45 -17 -24 4
-24 5 -9 35 12 23 18 27 25 16 6 -10 9 -10 9 -1z m253 6 c13 -5 13 -9 0 -35
-14 -28 -19 -30 -61 -27 -28 2 -47 8 -50 17 -3 9 0 11 8 6 10 -6 12 -4 7 7 -3
9 0 21 6 27 12 12 65 15 90 5z m108 -57 c-10 -9 -11 -8 -5 6 3 10 9 15 12 12
3 -3 0 -11 -7 -18z m1601 -23 c7 -15 7 -28 -2 -44 -14 -27 -21 -21 -25 22 -4
38 6 82 12 58 3 -8 9 -25 15 -36z m-1082 26 c0 -5 -2 -10 -4 -10 -3 0 -8 5
-11 10 -3 6 -1 10 4 10 6 0 11 -4 11 -10z m1160 -95 c5 -6 7 -15 3 -19 -4 -4
-2 -11 6 -15 9 -6 4 -10 -16 -14 -47 -9 -66 -3 -68 24 -3 40 6 53 21 30 8 -11
12 -26 9 -34 -4 -8 0 -14 9 -14 9 0 14 11 13 34 -1 20 -4 28 -9 20 -9 -14 -9
-13 -13 33 -5 54 8 60 22 11 7 -24 17 -49 23 -56z m-1170 59 c0 -3 -10 -28
-21 -55 -19 -43 -25 -49 -50 -49 l-29 0 15 38 c19 45 45 75 45 52 1 -11 3 -11
11 3 9 16 29 24 29 11z m3657 -10 c2 -5 -5 -26 -16 -47 l-19 -37 -21 40 c-12
22 -21 44 -21 49 0 11 73 7 77 -5z m83 6 c0 -5 -2 -10 -4 -10 -3 0 -8 5 -11
10 -3 6 -1 10 4 10 6 0 11 -4 11 -10z m180 -19 c0 -10 -6 -24 -14 -30 -11 -10
-17 -8 -25 6 -6 10 -11 12 -11 5 0 -9 -12 -10 -42 -6 -51 8 -52 9 -45 29 5 11
22 15 72 15 57 0 65 -2 65 -19z m-4017 -39 c-9 -23 -23 -42 -31 -42 -12 0 -13
3 0 23 8 12 20 33 27 45 20 37 22 20 4 -26z m4245 26 c-14 -21 -68 -39 -68
-23 0 22 23 41 51 43 31 2 31 2 17 -20z m52 13 c0 -12 -29 -35 -36 -28 -11 10
5 37 21 37 8 0 15 -4 15 -9z m66 -13 c-9 -12 -24 -23 -34 -25 -15 -2 -18 2
-14 22 3 20 10 25 34 25 28 0 29 -1 14 -22z m-4408 -43 c-6 -14 -15 -25 -19
-25 -4 0 -2 11 4 25 7 14 15 25 19 25 4 0 2 -11 -4 -25z m3989 13 c15 -6 33
-12 38 -13 6 0 9 -7 7 -15 -3 -14 -91 -201 -98 -209 -6 -7 -114 21 -120 31 -3
4 16 55 43 113 43 95 51 105 75 105 15 0 39 -5 55 -12z m-162 -76 c-17 -33
-30 -49 -39 -46 -18 7 -26 38 -14 55 8 11 8 10 4 -4 -4 -11 -2 -16 5 -11 6 3
8 17 4 31 -3 14 -2 22 2 20 5 -3 20 3 33 13 35 27 37 5 5 -58z m434 42 c2 -2
-6 -27 -18 -55 -12 -29 -19 -54 -17 -56 2 -2 13 21 26 51 19 47 44 75 57 63 5
-5 -56 -155 -80 -196 -18 -30 -22 -32 -32 -17 -11 15 -14 14 -26 -5 -11 -16
-20 -19 -42 -14 -15 4 -27 11 -27 15 0 16 93 215 104 222 10 7 44 2 55 -8z
m-199 -48 c-6 -19 -14 -36 -18 -38 -4 -2 -17 -23 -30 -48 -31 -62 -17 -14 19
66 31 69 50 81 29 20z m323 37 c3 -5 -18 -59 -45 -120 -44 -98 -54 -113 -74
-113 -13 0 -24 4 -24 9 0 5 21 59 47 120 40 95 50 111 69 111 13 0 25 -3 27
-7z m394 -17 c-3 -6 -31 -69 -63 -140 l-59 -128 -48 5 c-26 2 -50 7 -54 11 -4
3 21 64 56 134 45 93 68 128 83 132 34 9 90 -1 85 -14z m123 4 c0 -5 -13 -31
-28 -57 -16 -27 -41 -80 -56 -118 -43 -111 -46 -116 -56 -110 -6 4 -5 18 4 38
88 199 106 239 111 247 8 13 25 13 25 0z m-4815 -20 c-3 -10 -23 -58 -44 -107
-35 -82 -40 -88 -70 -91 -20 -2 -31 1 -31 9 0 8 -5 6 -12 -4 -17 -22 -108 -33
-108 -13 0 22 72 156 81 151 4 -3 17 8 29 25 14 20 30 30 47 30 22 0 24 -3 19
-25 -9 -36 1 -31 18 8 11 28 19 34 45 35 27 1 31 -2 26 -18z m211 -87 c17 -38
18 -63 2 -64 -7 0 -35 -3 -61 -5 -44 -5 -48 -4 -39 13 11 21 46 99 57 128 7
18 8 17 17 -10 5 -16 16 -44 24 -62z m-420 53 c-14 -55 -92 -201 -108 -204
-26 -5 -23 6 28 123 37 83 50 105 66 105 16 0 19 -5 14 -24z m-481 -58 c-4
-18 -29 -78 -54 -133 l-48 -101 -53 -12 c-29 -7 -55 -11 -57 -9 -3 4 13 49 44
117 73 165 74 167 141 169 33 1 33 0 27 -31z m-225 3 c0 -6 -5 -13 -11 -17 -7
-4 -8 -9 -1 -13 7 -4 4 -19 -7 -41 -9 -19 -32 -72 -50 -118 -33 -82 -55 -106
-91 -100 -17 3 -15 13 30 120 26 65 61 131 77 147 28 30 53 40 53 22z m350 -8
c0 -5 -6 -19 -13 -33 -7 -14 -23 -54 -36 -90 -26 -73 -37 -90 -57 -90 -11 0
-11 6 -3 28 36 96 109 221 109 185z m4393 -82 c8 -8 -11 -61 -22 -61 -11 1
-50 63 -44 73 6 9 53 1 66 -12z m218 -31 c15 0 10 -27 -13 -74 -19 -40 -25
-45 -47 -39 -14 3 -27 7 -29 8 -2 2 9 29 23 60 19 40 31 55 42 51 8 -3 19 -6
24 -6z m-5641 -15 c0 -8 -58 -35 -75 -35 -27 0 -11 25 21 31 39 9 54 10 54 4z
m1850 1 c0 -2 -9 -26 -20 -52 -24 -56 -21 -71 4 -16 13 29 23 38 41 37 13 0
26 -3 29 -6 4 -3 -5 -32 -19 -64 -14 -31 -24 -59 -22 -62 2 -2 10 10 17 27 20
49 45 33 52 -35 3 -22 8 -47 12 -56 5 -12 -7 -22 -56 -42 -76 -32 -82 -33 -68
-6 7 11 10 23 7 25 -2 3 -10 -9 -17 -25 -10 -26 -65 -59 -77 -47 -2 2 3 21 11
41 25 59 18 56 -12 -5 -22 -45 -36 -59 -75 -79 -26 -13 -49 -22 -51 -20 -2 2
33 88 77 191 49 116 86 189 96 191 22 6 71 8 71 3z m3850 -6 c0 -23 -41 -90
-55 -90 -19 0 -19 1 7 55 20 41 48 61 48 35z m53 -19 c-19 -59 -44 -100 -58
-95 -8 4 -15 9 -15 14 0 9 30 71 41 86 13 17 38 13 32 -5z m-5769 -20 c-10 -9
-92 -26 -83 -17 9 9 83 34 88 30 3 -3 0 -8 -5 -13z m-274 -7 c0 -8 -17 -22
-37 -31 -48 -20 -162 -34 -183 -23 -23 13 71 52 145 60 33 4 63 8 68 8 4 1 7
-5 7 -14z m-190 -4 c-20 -13 -33 -13 -25 0 3 6 14 10 23 10 15 0 15 -2 2 -10z
m420 -35 l-35 -13 40 -2 c35 -1 38 -2 23 -14 -10 -7 -18 -23 -18 -35 0 -11 -4
-21 -10 -21 -5 0 -10 -11 -10 -25 0 -20 -6 -27 -31 -32 -18 -3 -26 -9 -19 -13
7 -4 -6 -12 -30 -18 -39 -10 -40 -9 -34 11 3 12 14 38 24 57 19 38 42 90 46
103 1 4 2 9 3 12 0 3 20 5 44 4 l42 -1 -35 -13z m-710 -15 c0 -12 -92 -54
-139 -65 -17 -4 -31 -3 -31 2 1 21 22 37 71 54 60 21 99 24 99 9z m442 -22
c-9 -9 -47 -13 -110 -14 -53 -1 -88 2 -77 6 11 4 49 8 84 8 35 1 66 3 69 6 3
4 14 6 26 6 16 0 17 -3 8 -12z m4745 -10 c13 -12 23 -31 23 -43 0 -11 4 -25
10 -31 10 -10 3 -54 -9 -54 -4 0 -15 15 -25 33 -9 17 -14 23 -10 12 3 -11 7
-24 8 -30 2 -5 6 -18 10 -27 4 -9 4 -24 -1 -33 -9 -15 -11 -14 -25 7 -24 37
-31 83 -15 99 20 20 28 69 10 62 -7 -3 -13 2 -13 11 0 22 9 20 37 -6z m1176 5
c18 -10 33 -18 35 -19 1 -1 0 -8 -4 -17 -5 -13 -10 -14 -25 -7 -14 8 -20 6
-29 -10 -8 -16 -17 -19 -33 -14 -34 10 -37 16 -22 52 16 36 33 40 78 15z
m-1217 -17 c3 -14 1 -33 -4 -42 -9 -16 -12 -14 -25 16 -10 25 -11 37 -3 42 18
13 25 9 32 -16z m-2916 -1 c0 -24 -78 -189 -93 -197 -17 -9 -18 -7 -12 14 15
50 84 188 94 188 6 0 11 -2 11 -5z m215 -5 c3 -5 1 -10 -4 -10 -6 0 -11 5 -11
10 0 6 2 10 4 10 3 0 8 -4 11 -10z m2666 -50 c10 -32 8 -44 -10 -85 -12 -26
-20 -50 -18 -52 2 -2 12 15 22 37 19 41 35 52 35 24 0 -9 7 -31 16 -49 14 -31
14 -35 -17 -104 l-32 -72 -33 32 c-28 28 -31 35 -22 53 10 19 10 20 -5 7 -15
-12 -23 -8 -67 35 -28 27 -48 55 -45 62 3 7 1 11 -3 9 -12 -8 -88 61 -77 71 6
5 39 19 75 32 36 13 83 32 105 41 47 21 60 14 76 -41z m1367 45 c1 -1 -5 -19
-13 -39 -13 -31 -19 -36 -38 -30 -30 9 -30 8 -13 49 13 31 19 35 38 29 13 -3
24 -7 26 -9z m-6098 -10 c-34 -19 -17 -19 20 0 28 15 30 14 30 -4 0 -21 -18
-31 -61 -31 -16 0 -29 -4 -29 -9 0 -6 16 -7 35 -4 39 6 47 -3 13 -17 -18 -7
-19 -9 -5 -9 20 -1 22 -14 5 -28 -15 -12 -89 -31 -138 -37 -19 -2 -8 -2 25 -1
33 1 68 5 78 10 9 4 17 3 17 -2 0 -10 -208 -48 -216 -40 -9 9 9 37 25 37 13 0
13 2 2 9 -18 12 -5 31 22 32 21 0 21 1 2 9 -19 7 -19 8 -1 15 10 5 33 8 50 9
18 1 40 9 50 19 10 9 22 17 28 17 6 0 9 2 7 5 -3 2 -35 -4 -72 -14 -68 -20
-79 -16 -58 18 10 15 73 28 151 29 44 1 44 1 20 -13z m-431 -29 c-2 -2 -22 -6
-44 -9 -28 -5 -34 -4 -20 3 19 8 73 14 64 6z m2221 -4 c0 -5 -4 -12 -9 -17 -4
-6 -23 -46 -41 -90 -18 -44 -39 -87 -47 -96 -14 -16 -48 -15 -58 1 -6 10 72
192 85 200 14 8 70 10 70 2z m-190 -18 c0 -3 -6 -20 -14 -37 -7 -18 -24 -61
-37 -96 -20 -54 -29 -66 -53 -72 -32 -9 -32 -9 7 85 14 32 31 62 38 67 7 4 10
11 7 15 -12 12 12 44 32 44 11 0 20 -3 20 -6z m-2070 -8 c0 -2 -27 -13 -60
-24 -57 -20 -75 -17 -47 6 17 14 107 29 107 18z m6913 -15 c9 -9 -15 -65 -32
-76 -5 -3 -30 0 -56 7 -42 11 -46 14 -40 38 11 44 25 53 74 46 25 -3 49 -10
54 -15z m-6893 -15 c0 -8 -16 -15 -42 -19 -24 -2 -52 -8 -63 -12 -12 -5 -17
-4 -12 1 9 10 86 41 105 43 6 1 12 -5 12 -13z m1897 8 c19 -5 22 -11 17 -33
-4 -14 -11 -30 -15 -35 -5 -6 -9 -18 -9 -29 0 -10 -12 -43 -27 -73 -24 -50
-29 -54 -60 -54 -19 0 -43 -5 -54 -10 -10 -6 -19 -8 -19 -5 0 21 87 213 103
228 22 18 30 20 64 11z m3126 -120 c64 -66 117 -128 117 -138 0 -9 5 -14 10
-11 6 3 10 -1 10 -9 0 -9 6 -15 12 -14 7 2 14 -7 16 -19 2 -13 8 -23 13 -23 6
0 7 6 3 13 -5 9 -4 9 6 0 11 -10 11 -18 1 -40 -10 -23 -10 -26 0 -15 21 20 32
14 25 -15 -5 -26 -5 -27 6 -5 14 28 19 28 47 -2 16 -17 21 -31 17 -48 -6 -20
-65 -155 -74 -168 -1 -2 -14 9 -27 25 -24 29 -25 41 -9 92 5 17 5 17 -6 1 -6
-10 -15 -18 -20 -18 -6 0 -10 8 -10 18 0 14 -2 15 -10 2 -5 -8 -10 -12 -10 -7
0 4 1 8 3 10 1 1 -12 16 -29 32 -47 47 -317 415 -309 423 9 9 88 41 95 39 3
-1 58 -56 123 -123z m302 86 c9 -17 13 -35 10 -40 -3 -5 0 -18 6 -28 13 -21 6
-52 -11 -52 -5 0 -10 8 -10 18 0 9 -9 32 -20 49 -15 25 -17 39 -10 58 12 32
16 31 35 -5z m1667 -28 c-9 -23 -20 -42 -24 -42 -9 0 8 59 23 76 19 24 20 10
1 -34z m-7013 4 c-8 -9 -139 -22 -139 -15 0 7 20 11 110 22 26 3 37 0 29 -7z
m2853 -7 c-2 -8 -48 -120 -103 -249 -77 -181 -108 -241 -132 -263 -18 -15 -33
-24 -35 -19 -1 4 38 100 86 212 145 334 149 342 169 338 10 -2 17 -11 15 -19z
m-183 -265 l-114 -266 -69 -49 c-38 -27 -71 -47 -74 -45 -2 3 51 134 119 292
l122 287 61 27 c34 16 63 26 65 24 2 -2 -47 -124 -110 -270z m2661 204 c0 -6
-7 -7 -16 -4 -15 6 -15 4 -3 -11 8 -10 20 -23 28 -29 11 -8 11 -15 2 -33 -14
-26 -31 -19 -31 13 0 12 -5 27 -10 32 -14 14 -22 62 -14 76 8 12 44 -25 44
-44z m-5340 28 c0 -20 -6 -23 -85 -31 -75 -7 -78 0 -12 27 53 21 97 23 97 4z
m4710 10 c0 -3 -4 -8 -10 -11 -5 -3 -10 -1 -10 4 0 6 5 11 10 11 6 0 10 -2 10
-4z m-2185 -313 c-158 -369 -155 -364 -204 -396 -23 -15 -41 -25 -41 -22 0 7
192 457 237 557 27 59 44 82 69 98 19 11 39 31 44 46 6 15 13 24 16 21 4 -3
-51 -140 -121 -304z m364 255 c11 -51 11 -53 -41 -171 -48 -111 -55 -121 -102
-153 -27 -18 -51 -32 -53 -31 -5 5 170 407 177 407 4 0 12 -23 19 -52z m-2984
-8 c-16 -4 -39 -8 -50 -8 -16 0 -15 2 5 8 14 4 36 8 50 8 22 0 22 -1 -5 -8z
m5394 -73 c-7 -12 -16 -25 -21 -28 -5 -3 -2 -14 7 -23 28 -27 12 -27 -23 1
-35 27 -35 30 -5 103 l14 34 19 -32 c17 -27 18 -37 9 -55z m-3579 65 c0 -5 -7
-9 -15 -9 -8 0 -12 4 -9 9 3 4 9 8 15 8 5 0 9 -4 9 -8z m3689 -21 c-3 -6 -10
-7 -18 -2 -7 5 -10 14 -6 21 9 14 29 -2 24 -19z m-919 9 c0 -5 -8 -10 -17 -10
-15 0 -16 2 -3 10 19 12 20 12 20 0z m-1980 -19 c0 -12 -249 -592 -265 -617
-10 -16 -166 -129 -198 -142 -10 -5 32 109 48 128 7 8 16 29 19 46 7 32 43 72
84 94 13 6 21 14 19 17 -3 2 -17 -3 -31 -13 -15 -9 -28 -15 -31 -13 -2 2 13
42 32 87 29 68 44 88 74 107 49 31 61 51 14 24 -20 -12 -37 -20 -39 -18 -2 2
5 23 16 46 13 30 32 50 63 69 56 32 59 41 5 14 -22 -11 -40 -19 -40 -16 0 2
12 29 26 61 25 55 30 59 108 96 87 41 96 44 96 30z m2900 -19 c17 -13 21 -24
16 -40 -4 -12 -11 -22 -15 -22 -6 0 -41 63 -41 75 0 10 19 4 40 -13z m-2479
-9 c2 -24 2 -25 -7 -48 -6 -19 -6 -19 8 -1 14 18 15 17 28 -13 14 -35 6 -46
-51 -72 -14 -7 -33 -25 -41 -40 -9 -15 -25 -32 -37 -38 -18 -10 -17 -2 16 71
19 46 42 100 51 121 16 39 31 48 33 20z m2469 -66 c0 -15 -39 18 -44 37 -9 36
7 39 25 5 10 -19 18 -37 19 -42z m-3739 20 c-16 -16 -26 0 -10 19 9 11 15 12
17 4 2 -6 -1 -17 -7 -23z m3784 -48 c-6 -19 -9 -20 -22 -6 -12 12 -13 19 -3
37 11 21 13 21 22 6 5 -9 6 -26 3 -37z m-29 -46 c-8 -8 -39 25 -50 52 -5 14 2
10 25 -13 17 -18 29 -35 25 -39z m-86 27 c0 -5 -2 -10 -4 -10 -3 0 -8 5 -11
10 -3 6 -1 10 4 10 6 0 11 -4 11 -10z m40 -32 c0 -6 -7 -5 -15 2 -8 7 -15 17
-15 22 0 6 7 5 15 -2 8 -7 15 -17 15 -22z m104 16 c9 -24 7 -28 -9 -14 -17 14
-20 30 -6 30 5 0 12 -7 15 -16z m-2479 -30 c1 -38 16 -66 33 -60 10 3 -12 -21
-48 -54 -36 -32 -68 -59 -72 -60 -4 0 -39 -27 -78 -60 -38 -34 -70 -59 -70
-57 0 2 -21 -17 -47 -41 -27 -25 -81 -72 -122 -104 -75 -60 -197 -162 -299
-251 -30 -26 -57 -45 -60 -42 -3 3 -11 -4 -19 -14 -7 -11 -31 -34 -54 -52 -40
-32 -41 -32 -35 -8 4 15 -1 11 -14 -13 -16 -30 -124 -136 -135 -132 -1 1 -34
-28 -71 -63 -38 -35 -77 -69 -86 -74 -16 -9 -16 -6 1 33 10 24 26 57 34 73 9
17 33 69 53 118 21 48 42 87 47 87 5 0 7 6 4 14 -3 8 1 17 9 20 8 3 14 15 14
26 0 11 6 20 13 20 6 0 34 21 61 46 27 26 46 38 42 28 -18 -44 -16 -46 6 -7
13 23 47 60 77 83 30 22 56 40 57 40 2 0 -15 -43 -37 -97 -21 -53 -37 -98 -36
-100 2 -2 24 45 48 103 37 89 51 112 83 135 22 16 41 28 43 26 2 -2 -21 -64
-52 -137 -30 -74 -53 -135 -51 -137 2 -2 32 65 67 148 53 127 69 155 99 177
19 14 58 43 87 65 29 21 57 36 63 32 5 -3 10 -2 10 4 0 11 51 61 62 61 4 0 5
-8 2 -17 -3 -10 2 -4 12 12 9 17 26 37 38 45 94 69 159 110 166 105 5 -3 11 3
14 12 7 20 116 95 131 89 6 -1 10 -11 10 -22z m-901 -26 c-17 -45 -68 -98 -93
-98 -8 0 -22 -6 -30 -13 -9 -7 -36 -26 -59 -41 l-44 -27 6 23 c4 16 1 14 -10
-8 -17 -33 -104 -85 -103 -61 0 6 14 41 32 77 l32 64 135 62 c74 35 138 63
142 63 4 1 1 -18 -8 -41z m3386 1 c0 -6 -4 -7 -10 -4 -5 3 -10 11 -10 16 0 6
5 7 10 4 6 -3 10 -11 10 -16z m-30 -40 c0 -6 -4 -7 -10 -4 -5 3 -10 11 -10 16
0 6 5 7 10 4 6 -3 10 -11 10 -16z m-85 -50 c-4 -11 -2 -19 3 -19 6 0 12 5 14
11 2 5 11 7 20 4 13 -5 15 -12 7 -32 -12 -33 -12 -36 5 -30 8 3 20 0 26 -7 8
-11 0 -36 -31 -105 l-42 -90 -34 45 -35 45 22 52 c33 79 34 87 2 27 -25 -46
-30 -51 -36 -33 -10 30 51 164 70 156 9 -3 12 -13 9 -24z m-2327 -2 c-1 -7 5
-25 14 -42 28 -53 31 -91 10 -112 -10 -10 -29 -33 -41 -51 -12 -18 -26 -30
-30 -27 -7 4 -30 -19 -115 -120 -25 -29 -25 -27 8 50 103 246 139 324 147 319
5 -3 8 -11 7 -17z m2486 7 c3 -8 2 -12 -4 -9 -6 3 -10 10 -10 16 0 14 7 11 14
-7z m-3493 -55 c-18 -39 -36 -55 -156 -133 -75 -49 -138 -93 -142 -98 -9 -16
60 23 113 63 28 22 54 39 58 39 3 0 25 14 48 30 23 17 43 28 46 25 2 -2 -15
-50 -39 -106 -36 -85 -49 -105 -81 -125 -45 -29 -50 -41 -8 -19 l29 15 -19
-42 c-10 -24 -34 -55 -52 -70 -18 -16 -28 -28 -22 -28 5 0 16 6 23 13 20 18 8
-34 -23 -104 -24 -54 -32 -62 -183 -167 -87 -60 -159 -106 -161 -103 -3 8 55
148 68 166 4 6 16 34 26 64 18 50 25 57 116 120 54 36 98 69 98 74 0 6 -77
-39 -90 -53 -15 -18 -81 -62 -85 -58 -10 9 87 223 108 241 12 10 16 16 10 12
-19 -9 -16 8 12 70 21 48 31 59 72 78 26 12 68 36 93 53 47 33 110 68 122 69
4 0 13 6 19 12 21 21 20 9 0 -38z m3115 22 c10 -17 21 -28 25 -25 4 2 10 0 13
-5 6 -9 -13 -59 -59 -156 -13 -27 -38 -85 -55 -127 -18 -43 -36 -80 -41 -84
-8 -5 -14 17 -10 39 1 5 -8 21 -19 37 -11 15 -20 33 -20 39 0 7 24 64 53 129
30 64 60 132 68 150 17 40 23 40 45 3z m-2231 -177 c-63 -147 -84 -186 -118
-220 -23 -22 -55 -57 -71 -78 -15 -20 -30 -35 -33 -33 -9 10 169 412 193 437
22 22 24 22 19 5 l-7 -20 13 20 c12 21 72 75 77 70 1 -1 -32 -83 -73 -181z
m2585 99 c0 -13 -3 -13 -15 -3 -8 7 -15 16 -15 21 0 5 7 6 15 3 8 -4 15 -13
15 -21z m-269 -47 c10 -17 19 -27 19 -22 0 5 6 3 14 -3 13 -11 10 -24 -19 -89
-18 -42 -44 -100 -59 -128 -14 -29 -26 -56 -26 -62 0 -19 -60 -145 -67 -139
-3 4 -6 21 -5 39 0 18 -2 35 -6 38 -4 3 -15 21 -25 41 l-18 36 40 87 c23 47
41 88 41 91 0 2 16 38 35 80 37 81 44 84 76 31z m221 -59 c-32 -70 -41 -80
-61 -68 -10 7 -5 26 23 86 32 69 37 75 51 61 14 -14 13 -21 -13 -79z m77 64
c11 -11 19 -25 18 -33 -2 -48 3 -60 23 -55 23 6 27 -11 5 -19 -22 -9 -47 15
-39 38 3 10 2 18 -3 17 -29 -5 -48 25 -36 57 7 18 9 18 32 -5z m-4065 -33
c-22 -70 -53 -124 -80 -138 -16 -8 -42 -23 -57 -33 -16 -11 -30 -17 -32 -15
-3 2 11 36 29 75 19 39 32 73 30 76 -3 2 12 12 33 21 21 9 45 21 53 26 25 15
32 11 24 -12z m1362 6 c-3 -9 -43 -101 -87 -205 -75 -175 -85 -193 -134 -237
-29 -27 -59 -62 -68 -78 -15 -28 -67 -84 -67 -71 0 3 45 113 101 244 56 131
103 243 106 250 3 6 16 19 29 28 l25 16 -16 -37 c-8 -20 -14 -39 -11 -41 2 -2
11 15 21 39 9 23 33 57 53 75 41 35 57 42 48 17z m2664 -39 c0 -8 5 -15 11
-15 11 0 9 -25 -6 -65 -6 -16 -5 -17 4 -5 10 13 13 13 22 -3 6 -9 15 -14 21
-11 7 5 9 -2 4 -22 -18 -73 -71 -101 -71 -37 0 24 -3 29 -13 21 -17 -14 -43
20 -36 45 23 75 64 134 64 92z m85 5 c3 -5 1 -10 -4 -10 -6 0 -11 5 -11 10 0
6 2 10 4 10 3 0 8 -4 11 -10z m-4266 -82 c-42 -93 -49 -101 -117 -133 -32 -15
-61 -32 -65 -39 -5 -6 -6 2 -2 19 6 29 6 29 -9 10 -8 -11 -16 -26 -16 -32 0
-15 -9 -16 -29 -4 -12 8 -10 20 10 78 l24 68 115 57 c63 31 116 55 118 53 2
-2 -11 -37 -29 -77z m4031 -30 c0 -10 -5 -18 -11 -18 -5 0 -7 -4 -4 -10 3 -5
1 -19 -5 -30 -8 -16 -8 -20 3 -20 37 0 35 -25 -7 -115 -39 -83 -43 -88 -54
-68 -9 15 -9 29 -2 49 6 15 9 29 7 31 -5 4 -77 -161 -77 -176 0 -5 5 -13 12
-17 7 -5 9 -2 6 8 -6 14 28 45 38 35 3 -2 -11 -38 -29 -78 l-34 -74 -8 45 c-4
25 -18 66 -31 92 -13 26 -24 52 -24 58 0 10 66 161 133 303 l32 68 28 -33 c15
-18 27 -40 27 -50z m294 39 c-13 -34 -37 -15 -27 22 5 19 8 21 20 9 7 -8 11
-22 7 -31z m-80 2 c-8 -14 -24 -10 -24 6 0 9 6 12 15 9 8 -4 12 -10 9 -15z
m47 -45 c14 -13 16 -21 8 -36 -8 -15 -13 -17 -25 -7 -14 11 -20 59 -7 59 3 0
15 -7 24 -16z m-2995 -71 c-18 -43 -61 -145 -96 -228 -59 -142 -66 -154 -133
-220 -38 -38 -67 -62 -63 -52 18 50 13 45 -17 -18 -31 -65 -94 -151 -104 -142
-3 4 84 217 203 497 24 57 91 146 101 136 2 -2 -34 -95 -82 -206 -47 -112 -84
-205 -82 -207 3 -2 44 91 93 207 88 208 90 211 147 260 33 28 61 50 63 50 2 0
-12 -35 -30 -77z m2770 42 c2 -10 -2 -27 -7 -38 -10 -18 -11 -18 -24 -1 -9 13
-10 24 -2 41 12 27 29 26 33 -2z m-4311 -2 c-4 -10 -18 -47 -32 -83 -28 -76
-34 -82 -92 -104 l-43 -17 6 27 c4 15 20 55 36 90 22 49 36 67 67 83 48 26 67
27 58 4z m301 -32 c-9 -16 -16 -37 -16 -46 0 -17 -46 -65 -63 -65 -5 0 -6 8
-3 18 3 9 -3 5 -15 -11 -11 -15 -29 -32 -40 -38 -17 -9 -17 -5 6 48 24 54 55
93 76 93 5 0 6 -8 3 -17 -4 -10 3 -4 14 13 18 28 41 46 50 39 2 -2 -4 -17 -12
-34z m4292 -7 c22 -15 30 -48 13 -59 -11 -6 -51 42 -51 61 0 18 10 18 38 -2z
m-94 -3 c10 -15 -3 -37 -24 -38 -17 -1 -18 1 -8 23 12 25 23 30 32 15z m-126
-51 c39 -57 40 -50 -33 -205 -29 -60 -61 -130 -71 -154 -10 -25 -28 -65 -40
-90 l-21 -46 -33 66 -33 67 33 68 c29 60 52 110 138 306 10 21 19 38 22 38 3
0 20 -23 38 -50z m-3911 6 c-8 -8 -28 -18 -43 -21 -16 -3 -22 -2 -14 1 8 4 17
10 20 13 8 10 45 29 49 25 2 -2 -3 -10 -12 -18z m444 -3 c-8 -15 -10 -15 -11
-2 0 17 10 32 18 25 2 -3 -1 -13 -7 -23z m3689 -33 c0 -3 -6 -15 -14 -25 -14
-19 -15 -19 -35 -1 -21 19 -26 41 -15 71 6 14 11 12 35 -11 16 -15 29 -31 29
-34z m-4442 -14 c-21 -55 -48 -85 -83 -90 -9 -1 -20 -7 -23 -12 -4 -6 -21 -20
-39 -32 l-32 -23 31 76 c23 58 38 80 60 91 29 15 30 15 23 -8 -4 -13 -11 -27
-15 -33 -10 -14 -20 -45 -15 -45 3 0 18 26 34 58 16 32 40 63 53 69 13 6 24
10 25 9 1 -1 -7 -28 -19 -60z m705 -8 c-11 -24 -24 -53 -27 -65 -4 -13 -11
-23 -16 -23 -10 0 9 60 35 110 24 47 31 28 8 -22z m3801 26 c14 -20 16 -33 9
-57 l-9 -31 -26 35 c-19 23 -25 42 -21 57 7 29 24 27 47 -4z m-4441 -147 c-42
-101 -53 -119 -95 -150 -25 -20 -48 -34 -50 -31 -3 2 -18 -10 -34 -28 l-29
-31 48 32 c27 18 51 31 53 28 3 -3 -4 -25 -15 -50 -12 -25 -21 -50 -21 -56 0
-5 -15 -21 -32 -36 -20 -16 -24 -22 -10 -15 19 9 22 8 22 -11 0 -11 -6 -35
-13 -52 -8 -18 -21 -52 -29 -77 -13 -38 -26 -53 -89 -97 -41 -28 -99 -69 -129
-91 -38 -28 -57 -37 -62 -29 -5 8 -8 7 -8 -4 0 -16 -176 -146 -192 -142 -4 2
-8 -1 -8 -7 0 -9 -73 -60 -86 -60 -3 0 0 10 8 23 8 12 18 36 22 52 9 42 48
137 53 132 2 -3 16 6 31 20 46 42 116 92 149 108 18 8 37 24 43 35 14 27 4 25
-36 -5 -37 -29 -49 -31 -40 -10 9 25 -1 17 -21 -17 -19 -32 -113 -108 -113
-91 0 14 17 35 26 33 5 -1 10 4 13 11 2 6 -1 9 -7 5 -16 -9 6 54 25 74 11 12
11 8 -1 -15 -9 -16 -16 -34 -15 -40 0 -5 11 11 24 37 14 26 40 58 58 72 37 28
52 33 41 14 -4 -7 6 1 22 18 28 30 66 59 127 98 l29 18 -6 -24 c-4 -13 2 -7
14 14 12 22 36 46 58 57 40 20 72 51 54 51 -6 0 -12 -4 -14 -8 -5 -13 -140
-92 -156 -92 -8 0 -28 -15 -45 -32 -17 -18 -28 -26 -25 -18 20 56 15 58 -19 8
-36 -54 -133 -132 -133 -107 0 6 27 77 61 158 l60 148 70 36 c38 20 69 34 69
31 0 -3 -7 -18 -15 -34 -9 -17 -13 -30 -10 -30 2 0 13 17 24 38 19 38 74 80
182 140 31 18 58 30 61 27 2 -3 15 6 28 20 13 14 27 25 31 25 5 0 28 13 51 29
24 16 44 26 46 21 2 -5 -18 -60 -45 -123z m230 111 c-6 -7 -16 -30 -22 -51
-10 -29 -22 -41 -54 -56 -23 -11 -43 -18 -45 -16 -8 7 20 45 29 40 5 -4 9 -3
8 2 -6 33 2 43 29 38 25 -5 25 -5 5 4 -24 11 -33 34 -10 25 8 -3 25 4 38 15
26 21 39 20 22 -1z m4197 -68 c0 -9 -11 -3 -31 17 -19 19 -29 36 -24 43 9 14
54 -35 55 -60z m-4666 -28 c-17 -39 -35 -64 -52 -71 -13 -7 -26 -10 -28 -8 -4
4 36 104 51 127 6 8 19 20 30 26 30 17 30 -5 -1 -74z m4472 43 c-6 -22 -9 -25
-21 -15 -18 15 -20 47 -2 53 20 7 30 -10 23 -38z m85 18 c13 -16 12 -17 -3 -4
-17 13 -22 21 -14 21 2 0 10 -8 17 -17z m-3240 -40 c-11 -27 -60 -145 -110
-263 l-91 -215 -96 -95 -95 -95 44 105 c24 58 79 187 122 288 l77 183 82 69
c44 39 82 70 83 70 2 0 -6 -21 -16 -47z m-1391 -45 c-25 -65 -32 -74 -74 -95
l-46 -23 16 40 c9 23 14 44 10 47 -3 4 -6 -1 -6 -10 0 -9 -4 -17 -10 -17 -5 0
-10 -10 -10 -23 0 -26 -25 -66 -35 -56 -3 4 12 44 35 90 22 46 37 71 34 54 -5
-29 -5 -29 10 -10 8 11 16 25 16 31 0 11 56 42 76 43 7 1 1 -27 -16 -71z
m4721 35 c13 -16 12 -17 -3 -4 -10 7 -18 15 -18 17 0 8 8 3 21 -13z m88 -7
c15 -27 6 -55 -11 -38 -13 13 -19 62 -9 62 4 0 13 -11 20 -24z m-303 -41 c-9
-19 -21 -35 -26 -35 -11 0 -3 25 18 58 22 34 27 18 8 -23z m-220 8 c-10 -10
-19 5 -10 18 6 11 8 11 12 0 2 -7 1 -15 -2 -18z m319 -13 c18 -26 25 -46 20
-57 -6 -15 -11 -12 -39 21 -21 24 -32 46 -29 57 8 28 17 24 48 -21z m-3665
-15 c0 -8 -12 -40 -26 -72 -14 -32 -43 -104 -65 -160 -36 -92 -46 -107 -97
-151 -72 -62 -84 -68 -75 -45 3 10 9 23 13 28 4 6 28 58 54 117 25 59 57 128
71 154 14 26 25 53 25 61 0 7 10 17 23 22 13 5 31 21 40 35 19 29 37 34 37 11z
m3666 -82 c-3 -7 0 -12 7 -10 19 3 20 -52 1 -81 -10 -15 -31 -53 -46 -84 -15
-32 -31 -58 -35 -58 -11 0 -73 102 -73 119 0 7 19 56 42 108 l43 95 33 -38
c18 -21 30 -44 28 -51z m-5290 -39 l-44 -109 -69 -37 c-37 -21 -71 -38 -75
-38 -9 0 22 91 58 170 26 57 31 62 98 95 39 19 72 33 73 31 2 -1 -17 -52 -41
-112z m1769 -230 c-130 -306 -138 -321 -191 -374 l-55 -55 14 40 c8 22 42 103
75 180 33 77 90 212 127 300 59 139 74 165 114 201 25 23 47 39 49 35 1 -5
-58 -151 -133 -327z m3573 282 c3 -12 -1 -17 -10 -14 -7 3 -15 13 -16 22 -3
12 1 17 10 14 7 -3 15 -13 16 -22z m-204 -41 c-4 -8 -10 -15 -14 -15 -4 0 -10
7 -14 15 -4 10 1 15 14 15 13 0 18 -5 14 -15z m-4230 -54 c-9 -23 -18 -40 -20
-38 -2 2 4 22 13 45 9 23 18 40 20 38 2 -2 -4 -22 -13 -45z m543 17 c-3 -7 -5
-2 -5 12 0 14 2 19 5 13 2 -7 2 -19 0 -25z m-37 -2 c0 -2 -7 -6 -15 -10 -8 -3
-15 -1 -15 4 0 6 7 10 15 10 8 0 15 -2 15 -4z m-1728 -63 c-10 -21 -33 -75
-52 -121 l-32 -82 -127 -68 c-146 -78 -184 -95 -179 -83 2 5 30 70 63 145 l60
135 95 44 c147 69 185 84 188 76 2 -4 -5 -25 -16 -46z m1692 -121 c-34 -83
-66 -146 -72 -145 -7 2 -12 -3 -12 -10 0 -8 -24 -34 -52 -58 -29 -24 -65 -55
-80 -67 -35 -30 -38 -9 -5 39 13 19 32 58 42 86 10 29 23 49 28 46 6 -3 7 -1
3 5 -4 6 -2 19 3 29 5 10 24 54 43 98 35 85 73 136 94 128 7 -2 21 0 31 6 42
23 37 -11 -23 -157z m320 51 c-25 -60 -82 -197 -127 -306 l-82 -198 -131 -137
c-73 -75 -134 -135 -137 -132 -4 5 43 120 208 505 l72 170 118 103 c65 56 119
102 121 102 2 0 -17 -48 -42 -107z m3216 58 c10 -25 9 -36 -9 -76 -28 -63 -25
-73 3 -13 l23 47 17 -36 17 -36 -53 -119 c-29 -65 -55 -118 -58 -118 -3 0 -17
39 -32 86 l-26 86 46 104 c26 57 50 104 53 104 4 0 12 -13 19 -29z m150 -27
c0 -3 -7 -1 -15 6 -8 7 -15 17 -15 22 0 5 7 3 15 -6 8 -8 15 -18 15 -22z m112
-34 c37 -68 38 -76 16 -77 -16 -2 -19 3 -15 19 4 15 3 18 -5 10 -9 -9 -7 -20
6 -44 17 -33 17 -34 -14 -116 -18 -45 -35 -80 -40 -77 -9 5 -80 153 -80 166 0
18 73 158 80 154 5 -3 6 5 3 17 -5 21 -4 21 10 8 8 -8 26 -35 39 -60z m288 34
c0 -8 -4 -12 -10 -9 -5 3 -10 13 -10 21 0 8 5 12 10 9 6 -3 10 -13 10 -21z
m-3260 -51 c-132 -312 -138 -323 -208 -406 -38 -45 -76 -96 -85 -112 -18 -33
-77 -103 -77 -92 0 8 183 434 203 474 9 15 27 39 42 53 23 22 25 22 20 5 -3
-11 2 -6 12 12 19 34 104 130 115 132 4 1 -6 -29 -22 -66z m2539 -56 c1 -16 5
-26 10 -23 5 3 12 -5 15 -18 5 -22 -37 -136 -107 -285 -14 -30 -24 -58 -21
-63 3 -4 1 -8 -4 -8 -11 0 -44 -69 -37 -80 3 -4 -2 -10 -10 -13 -10 -4 -16 4
-21 28 -3 18 -3 38 0 43 3 6 -3 47 -13 92 l-20 81 76 172 c42 95 81 178 87
186 8 10 14 2 27 -35 10 -27 18 -62 18 -77z m616 73 c-24 -52 -30 -46 -8 8 9
23 18 40 21 37 3 -3 -3 -23 -13 -45z m-4109 -7 c-8 -15 -15 -22 -16 -15 0 17
20 55 27 49 2 -3 -2 -18 -11 -34z m4190 20 c7 -10 14 -25 14 -33 1 -24 -94
-220 -105 -216 -5 1 -14 14 -19 29 -8 21 -1 44 39 131 27 58 50 106 53 106 3
0 11 -8 18 -17z m-396 -40 c0 -5 -5 -15 -10 -23 -8 -12 -10 -11 -10 8 0 12 5
22 10 22 6 0 10 -3 10 -7z m-3815 -30 c-4 -10 -11 -29 -15 -43 -8 -25 -33 -88
-50 -125 -5 -11 -22 -51 -37 -88 -26 -62 -37 -75 -133 -157 -58 -48 -107 -86
-109 -84 -6 5 50 134 58 134 4 0 13 16 20 35 7 21 17 33 23 29 7 -4 8 -2 4 4
-7 11 73 182 85 182 4 0 21 14 38 30 20 20 28 37 24 48 -5 14 -3 15 8 5 18
-18 46 -16 53 3 4 9 4 19 1 22 -3 3 -5 0 -5 -7 0 -7 -4 -9 -10 -6 -15 10 -12
23 8 28 36 10 44 7 37 -10z m-1426 -95 c-13 -29 -31 -60 -41 -69 -10 -9 -16
-18 -13 -20 2 -3 -5 -11 -17 -18 -19 -12 -20 -11 -14 16 13 52 69 162 85 165
24 5 24 -15 0 -74z m5672 68 c-5 -6 -12 -22 -16 -36 -20 -66 -69 -160 -78
-151 -11 11 0 45 46 137 17 33 36 61 44 61 8 0 9 -5 4 -11z m-481 -52 c0 -14
-59 -153 -86 -205 l-18 -34 -7 50 c-7 43 -4 56 21 105 16 30 36 73 45 95 15
38 17 39 31 21 8 -11 14 -25 14 -32z m538 -39 c-28 -74 -83 -195 -89 -195 -10
0 -33 54 -30 70 2 8 23 59 49 113 l45 98 21 -20 c20 -20 20 -22 4 -66z m-4077
28 c-11 -27 -85 -203 -164 -391 l-145 -344 -79 -81 c-81 -85 -102 -103 -84
-71 6 11 47 107 91 214 45 107 120 286 168 398 l86 203 71 59 c38 33 71 60 72
60 2 0 -6 -21 -16 -47z m-2281 31 c0 -20 -127 -293 -144 -310 -24 -25 -216
-130 -216 -118 0 11 98 262 116 296 11 20 44 43 122 83 107 54 122 60 122 49z
m1102 -49 c-9 -19 -19 -35 -23 -35 -5 0 -2 10 4 23 30 56 42 64 19 12z m4755
-127 c-8 -26 -11 -46 -6 -42 5 3 9 11 9 18 0 8 6 19 13 25 11 8 17 3 30 -25 9
-19 17 -40 17 -47 1 -16 -112 -267 -119 -267 -3 0 -23 50 -44 110 l-38 110 37
83 c20 45 46 100 57 122 l19 39 21 -39 c18 -37 19 -42 4 -87z m-218 23 c12
-34 19 -72 16 -82 -4 -13 -2 -19 8 -19 17 0 27 -21 27 -53 0 -13 -31 -92 -69
-177 -86 -196 -154 -333 -147 -299 3 14 2 39 -3 55 -4 16 -4 39 0 52 6 14 5
21 -1 17 -5 -3 -12 4 -15 17 -3 13 -12 53 -20 90 l-15 67 91 206 c51 113 95
202 99 198 4 -4 17 -37 29 -72z m-4567 37 c-7 -7 -12 -8 -12 -2 0 6 3 14 7 17
3 4 9 5 12 2 2 -3 -1 -11 -7 -17z m1653 -203 c-100 -230 -87 -209 -273 -440
-4 -5 -20 -30 -35 -55 -27 -46 -92 -124 -86 -104 2 6 56 134 119 283 96 226
122 280 158 319 24 26 41 40 39 32 -3 -8 -8 -24 -12 -35 -3 -11 5 1 18 27 23
43 156 202 164 195 1 -2 -40 -102 -92 -222z m3293 170 c-9 -9 -30 14 -23 25 6
9 10 8 17 -4 6 -10 8 -19 6 -21z m-5361 12 c-3 -7 -33 -82 -68 -166 l-62 -153
-71 -53 c-39 -29 -81 -58 -93 -64 -21 -10 -21 -10 -13 22 l9 32 -19 -23 c-11
-13 -24 -21 -30 -17 -5 3 -10 2 -10 -2 0 -5 -10 -13 -22 -18 -13 -6 -23 -18
-23 -27 0 -9 -4 -20 -8 -24 -4 -4 -7 9 -7 29 0 21 16 71 39 119 21 46 47 105
59 132 12 30 27 51 37 52 10 2 21 6 24 11 3 4 26 21 50 38 24 16 46 35 48 43
6 13 64 47 118 69 40 15 48 15 42 0z m-227 -22 c0 -8 -4 -15 -10 -15 -5 0 -7
7 -4 15 4 8 8 15 10 15 2 0 4 -7 4 -15z m5724 -10 c-4 -8 -10 -12 -15 -9 -11
6 -2 24 11 24 5 0 7 -7 4 -15z m-5104 -10 c-7 -8 -18 -15 -24 -15 -6 0 -2 7 8
15 25 19 32 19 16 0z m5112 -67 c30 -46 58 -88 62 -95 4 -7 -8 -45 -27 -85
-18 -40 -39 -88 -47 -106 -17 -43 -24 -35 -80 90 l-43 97 38 91 c21 49 39 90
40 90 2 0 28 -37 57 -82z m-4410 19 c-5 -7 -13 -28 -17 -47 -4 -19 -14 -45
-22 -57 -8 -12 -12 -27 -8 -33 3 -5 -6 -36 -20 -67 -23 -50 -41 -70 -137 -148
-62 -49 -109 -82 -106 -75 4 8 23 55 43 105 20 49 38 92 41 94 2 2 13 -4 24
-14 20 -18 21 -17 85 45 36 34 60 60 52 57 -8 -3 -20 -1 -27 3 -18 11 5 40 32
40 10 0 16 5 13 10 -8 13 37 109 48 103 4 -3 4 -10 -1 -16z m305 1 c-10 -23
-228 -541 -271 -641 l-41 -97 -199 -200 c-110 -110 -201 -199 -203 -197 -1 2
76 190 171 417 122 288 183 422 203 441 49 50 328 288 337 288 4 1 6 -5 3 -11z
m3866 -248 c-26 -61 -56 -120 -65 -132 l-18 -23 0 29 c0 16 -7 34 -16 40 -14
11 -10 24 31 116 25 57 52 112 60 120 8 9 15 23 16 31 0 8 10 -5 20 -29 l20
-43 -48 -109z m646 144 c12 -19 21 -44 21 -54 0 -24 -95 -260 -105 -260 -3 0
-16 23 -31 51 l-26 52 32 71 c50 110 81 176 85 176 2 0 12 -16 24 -36z m-6279
-6 c0 -7 -44 -119 -70 -178 -15 -36 -42 -99 -59 -141 l-32 -76 -107 -70 c-199
-131 -222 -144 -222 -127 0 8 24 72 53 142 30 70 66 160 82 200 l29 73 150 90
c129 75 176 99 176 87z m5410 -43 c4 3 24 -41 43 -98 l36 -102 -65 -144 c-35
-79 -62 -146 -60 -149 3 -2 11 11 19 29 97 232 122 265 141 188 8 -33 1 -54
-79 -235 -121 -275 -188 -409 -173 -349 3 11 2 45 -2 75 -7 52 -4 62 41 164
27 60 47 111 45 114 -2 2 -13 -17 -24 -42 -12 -25 -33 -73 -48 -107 l-28 -62
-12 64 c-6 35 -17 96 -24 134 l-13 70 92 205 c50 113 89 211 86 218 -3 8 0 10
6 6 7 -4 9 1 5 17 -3 13 -3 18 0 11 3 -6 9 -10 14 -7z m-4065 -15 c3 -5 1 -10
-4 -10 -6 0 -11 5 -11 10 0 6 2 10 4 10 3 0 8 -4 11 -10z m-1359 -47 c-8 -15
-15 -25 -16 -21 0 12 23 58 27 54 3 -2 -2 -17 -11 -33z m1215 10 c-8 -15 -10
-15 -11 -2 0 17 10 32 18 25 2 -3 -1 -13 -7 -23z m139 13 c0 -3 -4 -8 -10 -11
-5 -3 -10 -1 -10 4 0 6 5 11 10 11 6 0 10 -2 10 -4z m4011 -63 c-11 -21 -20
-35 -21 -31 0 12 33 78 38 74 2 -2 -6 -21 -17 -43z m376 17 c7 -14 13 -33 13
-42 0 -20 -122 -297 -131 -298 -3 0 -13 27 -23 60 -23 76 -19 90 60 256 28 58
59 67 81 24z m-3522 -17 c-9 -21 -57 -135 -107 -253 l-92 -215 -108 -132 c-60
-73 -111 -133 -113 -133 -1 0 34 87 79 193 45 105 98 229 117 275 29 70 50
101 132 193 54 60 100 109 103 109 2 0 -3 -17 -11 -37z m-1028 19 c13 10 15 9
12 -7 -3 -13 -12 -19 -27 -18 -35 1 -35 2 -21 19 9 11 15 12 17 5 3 -9 8 -8
19 1z m5143 -173 c-29 -63 -56 -118 -61 -124 -19 -19 -8 17 32 107 22 51 48
111 57 133 13 31 18 35 20 19 2 -11 -20 -72 -48 -135z m-5140 124 c-1 -18 -19
-35 -30 -28 -9 6 -9 3 -1 -14 7 -11 8 -21 3 -21 -4 0 -8 -8 -9 -17 -1 -10 -9
-39 -18 -65 -15 -42 -36 -63 -164 -170 -204 -172 -186 -161 -162 -99 28 69 44
92 91 130 23 18 37 37 34 43 -4 6 -3 9 2 5 10 -6 45 16 46 30 1 19 18 53 26
53 5 0 13 15 19 33 7 27 14 32 38 32 23 0 31 5 33 22 4 28 49 73 73 73 11 0
19 -3 19 -7z m-1244 -40 c-8 -15 -15 -25 -16 -21 0 12 23 58 27 54 3 -2 -2
-17 -11 -33z m5181 -73 c-3 -19 -3 -28 1 -20 3 9 11 -5 18 -34 13 -48 12 -50
-41 -169 -59 -133 -57 -133 -76 11 -14 103 -14 106 48 239 l36 78 10 -35 c5
-19 7 -51 4 -70z m-3791 18 c-30 -80 -364 -886 -377 -910 -12 -22 -261 -280
-266 -275 -1 2 42 114 98 248 55 134 115 280 133 324 18 44 71 167 117 274 75
176 88 199 134 242 63 60 176 159 181 159 2 0 -7 -28 -20 -62z m3985 35 c-12
-20 -14 -14 -5 12 4 9 9 14 11 11 3 -2 0 -13 -6 -23z m474 -25 c14 -29 25 -59
25 -67 0 -12 -26 -73 -112 -261 l-30 -65 -24 69 c-13 39 -24 78 -24 87 0 19
126 289 135 289 3 0 17 -24 30 -52z m357 -133 l71 -144 -17 -34 c-9 -19 -16
-38 -16 -42 0 -17 -76 -165 -83 -162 -5 1 -40 71 -79 155 l-70 151 21 46 c11
24 21 48 21 51 0 19 64 133 72 128 5 -3 41 -70 80 -149z m-6231 118 c-12 -20
-14 -14 -5 12 4 9 9 14 11 11 3 -2 0 -13 -6 -23z m179 -6 c0 -2 -11 -34 -24
-72 -19 -54 -33 -76 -70 -107 -25 -22 -46 -38 -46 -35 0 2 14 40 31 83 20 50
42 89 62 107 27 24 47 34 47 24z m5181 -44 c-11 -21 -20 -35 -21 -31 0 12 33
78 38 74 2 -2 -6 -21 -17 -43z m-5382 -12 c-6 -18 -13 -30 -15 -28 -2 2 1 18
7 36 6 18 13 30 15 28 2 -2 -1 -18 -7 -36z m-527 -129 c-27 -64 -64 -155 -82
-202 -18 -47 -40 -93 -48 -103 -20 -23 -181 -121 -188 -114 -4 4 146 400 164
433 12 21 196 125 200 113 2 -5 -18 -62 -46 -127z m2507 -178 c-67 -159 -128
-302 -136 -318 -17 -32 -125 -167 -130 -162 -2 2 58 149 133 327 126 298 141
329 192 386 31 35 57 61 59 59 2 -2 -51 -134 -118 -292z m3367 239 c-8 -15
-15 -25 -16 -21 0 12 23 58 27 54 3 -2 -2 -17 -11 -33z m-5825 -10 c-12 -20
-14 -14 -5 12 4 9 9 14 11 11 3 -2 0 -13 -6 -23z m6450 -26 l19 -48 -57 -127
c-56 -126 -93 -187 -90 -146 1 11 -3 18 -9 17 -6 -1 -9 8 -7 21 3 16 -2 28
-17 39 l-22 15 50 96 c27 52 52 93 56 89 3 -3 6 6 6 21 0 29 29 77 44 73 5 -2
17 -24 27 -50z m-5955 28 c-3 -8 -2 -25 3 -38 7 -17 3 -29 -15 -52 -13 -17
-24 -34 -24 -39 0 -9 -61 -66 -71 -66 -10 0 64 167 84 190 20 24 31 26 23 5z
m-542 -124 c-20 -51 -38 -90 -40 -88 -4 4 19 78 36 112 5 11 14 33 20 49 6 16
13 27 15 24 3 -2 -11 -46 -31 -97z m6137 52 c-11 -21 -20 -35 -21 -31 0 12 33
78 38 74 2 -2 -6 -21 -17 -43z m93 -89 c23 -71 42 -139 40 -150 -3 -19 -207
-474 -245 -547 -15 -27 -16 -23 -51 140 l-37 168 111 245 c123 274 128 283
134 277 2 -2 24 -62 48 -133z m-432 86 c6 -19 -5 -50 -47 -135 l-54 -110 3 65
c3 47 13 85 36 137 34 75 50 86 62 43z m-5118 -3 c-20 -66 -87 -185 -110 -195
-13 -7 -24 -16 -24 -22 0 -5 -6 -10 -14 -10 -8 0 -22 -8 -32 -17 -16 -17 -17
-16 -12 7 3 14 9 34 12 45 4 11 -4 0 -17 -25 -27 -49 -51 -72 -109 -108 l-37
-23 25 58 c54 127 67 146 123 181 56 36 57 36 36 -23 -4 -11 7 5 24 35 17 30
44 65 59 78 15 12 31 26 37 30 5 5 17 9 28 9 14 2 17 -3 11 -20z m763 -19 c-2
-7 -18 -46 -33 -87 -32 -81 -11 -59 -283 -291 -172 -146 -167 -143 -135 -73
74 165 68 158 259 316 171 140 203 163 192 135z m-1366 -27 c-8 -5 -11 -16 -8
-25 6 -14 3 -15 -13 -6 -25 13 -26 27 -2 33 29 8 38 7 23 -2z m5950 -195 c-49
-108 -92 -200 -96 -204 -11 -10 -8 -3 89 212 49 108 90 195 92 193 2 -2 -36
-92 -85 -201z m-5671 165 c0 -3 -4 -13 -10 -21 -6 -9 -5 -17 3 -22 9 -6 5 -13
-11 -26 -13 -10 -24 -25 -26 -35 -2 -17 -34 -57 -46 -57 -4 0 -5 11 -2 25 2
14 9 22 15 18 6 -4 7 -1 2 7 -11 18 44 130 61 123 8 -3 14 -8 14 -12z m5465
-133 c-8 -22 -11 -37 -5 -33 5 3 10 13 10 21 0 8 4 14 9 14 5 0 14 -27 19 -60
l11 -59 -56 -123 c-30 -68 -58 -127 -62 -131 -5 -4 -17 61 -29 144 l-20 153
55 115 56 116 14 -59 c12 -52 12 -64 -2 -98z m756 74 c11 -24 19 -54 19 -68 0
-13 -29 -84 -65 -159 -60 -128 -65 -135 -85 -125 -26 14 -28 19 -39 100 -6 48
-5 73 6 100 22 56 37 84 54 103 9 10 22 35 29 57 7 22 17 37 21 34 5 -3 9 2 9
12 0 27 30 -4 51 -54z m-4150 26 c-5 -13 -61 -146 -125 -296 l-115 -274 -162
-201 c-89 -111 -164 -204 -166 -207 -7 -8 12 38 105 255 49 116 111 260 137
322 45 108 52 118 183 267 75 85 140 155 144 155 4 1 4 -9 -1 -21z m-2401 -38
c0 -5 -5 -10 -11 -10 -5 0 -7 5 -4 10 3 6 8 10 11 10 2 0 4 -4 4 -10z m-92
-60 c-12 -29 -23 -49 -25 -43 -4 11 37 107 43 100 2 -2 -6 -28 -18 -57z m5929
28 c-3 -8 -6 -5 -6 6 -1 11 2 17 5 13 3 -3 4 -12 1 -19z m-5510 -84 c-15 -38
-29 -59 -39 -58 -11 1 -15 -6 -13 -22 1 -16 -9 -33 -31 -54 -18 -16 -37 -30
-42 -30 -4 0 -15 -9 -25 -20 -15 -18 -37 -27 -37 -15 0 12 45 123 61 150 15
25 138 117 147 110 2 -2 -8 -29 -21 -61z m1661 -139 c-83 -197 -83 -197 -173
-298 -160 -179 -147 -166 -140 -137 3 17 -1 13 -13 -12 -14 -30 -286 -348
-297 -348 -4 0 45 119 129 315 24 55 48 114 55 130 15 36 283 319 276 290 -3
-11 1 -8 8 7 14 30 227 262 234 255 2 -3 -33 -93 -79 -202z m-1903 154 c-18
-50 -18 -52 -4 -43 8 4 8 0 0 -15 -7 -11 -18 -21 -25 -21 -11 0 -10 11 6 52
21 56 27 68 33 68 2 0 -2 -19 -10 -41z m6209 -49 c24 -59 21 -77 -33 -202 -58
-135 -200 -447 -227 -501 l-20 -38 -12 98 -12 99 54 119 c30 66 84 185 120
265 37 80 72 157 79 173 17 38 32 34 51 -13z m1064 -25 c17 -24 32 -51 32 -60
0 -24 -80 -186 -88 -181 -4 2 -17 24 -29 48 l-22 43 32 97 c18 54 34 97 37 97
3 0 20 -20 38 -44z m-721 -14 c38 -57 38 -88 0 -171 -19 -41 -57 -124 -85
-183 l-50 -109 -12 39 c-7 21 -24 65 -37 97 -16 38 -22 69 -19 85 4 14 8 31 9
38 2 7 10 20 18 30 16 18 57 89 87 148 20 41 43 66 56 62 6 -2 21 -18 33 -36z
m-6703 -23 c-3 -29 -12 -58 -20 -64 -8 -6 -10 -14 -6 -18 4 -4 3 -7 -3 -6 -20
4 -34 0 -50 -16 -14 -15 -15 -14 -11 10 8 47 17 66 30 66 6 0 23 18 36 40 14
22 26 40 28 40 1 0 0 -24 -4 -52z m212 -32 c-24 -79 -39 -103 -81 -129 -23
-15 -50 -36 -60 -47 -16 -18 -55 -28 -55 -15 0 3 15 37 32 77 34 76 63 111 87
103 8 -3 11 0 8 8 -3 8 3 14 15 14 11 1 30 9 42 17 11 8 22 15 23 15 1 1 -4
-19 -11 -43z m6890 -7 c14 -28 23 -58 20 -66 -3 -8 -2 -12 3 -9 5 4 23 -27 39
-66 17 -40 53 -122 81 -181 36 -77 49 -116 45 -133 -3 -13 -10 -24 -15 -24 -5
0 -9 -7 -9 -16 0 -9 -6 -28 -14 -42 -8 -15 -24 -48 -35 -74 -11 -26 -29 -61
-40 -79 l-20 -33 -57 120 c-169 356 -163 341 -155 376 4 18 13 42 18 53 6 11
19 39 29 62 11 24 22 43 26 43 4 0 4 8 1 17 -5 12 -2 15 10 10 14 -5 16 -2 11
18 -4 15 -2 25 5 25 6 0 11 8 11 18 0 17 8 32 16 32 2 0 15 -23 30 -51z
m-1228 -206 c-57 -119 -62 -126 -69 -98 -13 59 -9 107 15 154 12 25 38 77 57
115 l34 69 12 -56 13 -55 -62 -129z m489 105 c-9 -18 -52 -114 -95 -213 -106
-239 -170 -373 -171 -357 -1 7 41 106 93 220 145 321 179 392 184 388 2 -3 -3
-19 -11 -38z m-6351 -37 c-9 -22 -27 -52 -41 -65 -14 -13 -25 -28 -25 -34 0
-10 -29 -26 -43 -23 -5 1 -6 -3 -2 -9 6 -10 -61 -48 -70 -39 -2 3 3 29 13 58
17 56 74 127 93 116 6 -4 20 3 31 15 16 17 22 19 29 9 6 -11 9 -10 15 4 14 37
14 8 0 -32z m5961 7 c-3 -7 -5 -2 -5 12 0 14 2 19 5 13 2 -7 2 -19 0 -25z
m-13 -71 l16 -78 -62 -129 c-33 -72 -65 -130 -69 -130 -10 0 -16 25 -23 99 -5
47 0 65 36 150 46 110 78 175 83 169 1 -1 10 -38 19 -81z m-5004 44 c0 -4 -17
-23 -37 -42 -51 -48 -332 -281 -365 -303 l-27 -18 28 59 c31 63 56 93 114 137
21 16 59 49 85 73 58 55 121 99 147 105 24 5 55 -1 55 -11z m5038 -61 c0 -22
-1 -22 -8 5 -4 17 -8 39 -8 50 0 16 2 15 8 -5 4 -14 8 -36 8 -50z m778 29 c34
-38 42 -80 21 -115 -10 -18 -17 -36 -15 -40 4 -15 -40 -91 -57 -97 -8 -4 -15
-13 -15 -21 0 -7 -10 -16 -22 -20 -25 -6 -48 15 -48 45 0 10 -8 25 -17 35 -13
13 -14 19 -5 22 6 2 12 8 12 14 0 6 11 26 26 45 14 18 23 37 20 42 -3 5 1 15
10 22 8 7 24 30 35 51 22 44 29 46 55 17z m-1185 -46 c-11 -21 -20 -35 -21
-31 0 12 33 78 38 74 2 -2 -6 -21 -17 -43z m416 -35 c-3 -8 -6 -5 -6 6 -1 11
2 17 5 13 3 -3 4 -12 1 -19z m-6235 -14 c3 -3 -3 -24 -15 -47 -17 -37 -21 -40
-28 -22 -4 11 -8 14 -8 6 -1 -10 -4 -11 -14 -2 -8 6 -18 7 -22 3 -5 -4 -5 1
-2 11 4 10 7 23 7 28 0 6 4 7 10 4 5 -3 20 1 32 9 24 17 32 19 40 10z m5774
-51 c-14 -26 -25 -45 -26 -41 0 12 43 98 48 94 2 -2 -8 -26 -22 -53z m471 15
c-3 -7 -5 -2 -5 12 0 14 2 19 5 13 2 -7 2 -19 0 -25z m-14 -90 l17 -78 -73
-157 -72 -158 -14 106 -14 107 50 103 c28 57 56 119 63 137 7 18 16 29 20 25
4 -4 14 -43 23 -85z m-6343 76 c0 -3 -7 -12 -15 -20 -16 -17 -18 -14 -9 10 6
15 24 23 24 10z m5847 -161 c-2 -16 -4 -5 -4 22 0 28 2 40 4 28 2 -13 2 -35 0
-50z m10 -145 c-2 -13 -4 -5 -4 17 -1 22 1 32 4 23 2 -10 2 -28 0 -40z m-171
-150 c-19 -27 -21 -19 -4 18 7 14 14 21 16 15 2 -6 -4 -21 -12 -33z"/>
<path d="M4670 6641 c0 -6 4 -13 10 -16 6 -3 7 1 4 9 -7 18 -14 21 -14 7z"/>
<path d="M10966 6984 c-8 -21 -8 -24 3 -24 5 0 11 9 14 20 6 24 -8 27 -17 4z"/>
<path d="M5632 6555 c-17 -37 -14 -45 4 -12 9 16 14 31 11 33 -2 2 -9 -7 -15
-21z"/>
<path d="M5606 6495 c-9 -26 -7 -32 5 -12 6 10 9 21 6 23 -2 3 -7 -2 -11 -11z"/>
<path d="M5577 6425 c-24 -50 -20 -58 4 -12 11 22 19 41 17 43 -3 2 -12 -12
-21 -31z"/>
<path d="M5542 6345 c-17 -37 -14 -45 4 -12 9 16 14 31 11 33 -2 2 -9 -7 -15
-21z"/>
<path d="M10880 6830 c0 -5 5 -10 10 -10 6 0 10 5 10 10 0 6 -4 10 -10 10 -5
0 -10 -4 -10 -10z"/>
<path d="M9804 6426 c-12 -18 -24 -46 -28 -62 -6 -26 -4 -25 17 11 23 37 43
86 35 85 -2 -1 -12 -16 -24 -34z"/>
<path d="M9726 6393 c-6 -14 -5 -15 5 -6 7 7 10 15 7 18 -3 3 -9 -2 -12 -12z"/>
<path d="M9910 6354 c-16 -40 -12 -49 10 -21 22 27 26 47 10 47 -6 0 -15 -12
-20 -26z"/>
<path d="M9700 6345 c0 -8 2 -15 4 -15 2 0 6 7 10 15 3 8 1 15 -4 15 -6 0 -10
-7 -10 -15z"/>
<path d="M9823 6319 c-6 -8 -14 -28 -18 -44 l-7 -30 22 32 c22 33 25 68 3 42z"/>
<path d="M9717 6253 c-4 -3 -7 -11 -7 -17 0 -6 5 -5 12 2 6 6 9 14 7 17 -3 3
-9 2 -12 -2z"/>
<path d="M9627 6203 c-4 -3 -7 -11 -7 -17 0 -6 5 -5 12 2 6 6 9 14 7 17 -3 3
-9 2 -12 -2z"/>
<path d="M9646 6086 c-9 -14 -23 -38 -32 -52 -24 -40 -1 -20 31 26 15 22 25
43 22 46 -3 3 -13 -6 -21 -20z"/>
<path d="M9550 6035 c-7 -9 -8 -15 -2 -15 5 0 12 7 16 15 3 8 4 15 2 15 -2 0
-9 -7 -16 -15z"/>
<path d="M5336 6275 c-9 -26 -7 -32 5 -12 6 10 9 21 6 23 -2 3 -7 -2 -11 -11z"/>
<path d="M5305 6199 c-4 -6 -5 -12 -2 -15 2 -3 7 2 10 11 7 17 1 20 -8 4z"/>
<path d="M5286 6155 c-9 -26 -7 -32 5 -12 6 10 9 21 6 23 -2 3 -7 -2 -11 -11z"/>
<path d="M5256 6085 c-9 -26 -7 -32 5 -12 6 10 9 21 6 23 -2 3 -7 -2 -11 -11z"/>
<path d="M9370 6240 c-9 -6 -10 -10 -3 -10 6 0 15 5 18 10 8 12 4 12 -15 0z"/>
<path d="M9298 6207 c-19 -8 -25 -16 -20 -25 6 -9 14 -6 32 13 26 28 26 29
-12 12z"/>
<path d="M9230 6175 c-14 -7 -24 -16 -22 -19 3 -9 15 -4 36 16 23 21 20 22
-14 3z"/>
<path d="M4882 5895 c-17 -37 -14 -45 4 -12 9 16 14 31 11 33 -2 2 -9 -7 -15
-21z"/>
<path d="M8056 5505 c-9 -26 -7 -32 5 -12 6 10 9 21 6 23 -2 3 -7 -2 -11 -11z"/>
<path d="M8035 5459 c-4 -6 -5 -12 -2 -15 2 -3 7 2 10 11 7 17 1 20 -8 4z"/>
<path d="M7772 5175 c-17 -37 -14 -45 4 -12 9 16 14 31 11 33 -2 2 -9 -7 -15
-21z"/>
<path d="M4886 5290 c3 -14 11 -32 16 -40 6 -10 7 -7 2 10 -3 14 -11 32 -16
40 -6 10 -7 7 -2 -10z"/>
<path d="M7940 4470 c0 -5 4 -10 9 -10 6 0 13 5 16 10 3 6 -1 10 -9 10 -9 0
-16 -4 -16 -10z"/>
<path d="M8266 3985 c-9 -26 -7 -32 5 -12 6 10 9 21 6 23 -2 3 -7 -2 -11 -11z"/>
<path d="M4331 3689 c-12 -29 -20 -54 -18 -56 2 -2 14 20 26 48 12 29 20 54
18 56 -2 2 -14 -20 -26 -48z"/>
<path d="M4392 3655 c-17 -37 -14 -45 4 -12 9 16 14 31 11 33 -2 2 -9 -7 -15
-21z"/>
<path d="M2428 3693 c7 -3 16 -2 19 1 4 3 -2 6 -13 5 -11 0 -14 -3 -6 -6z"/>
<path d="M6845 3679 c-4 -6 -5 -12 -2 -15 2 -3 7 2 10 11 7 17 1 20 -8 4z"/>
<path d="M6812 3605 c-17 -37 -14 -45 4 -12 9 16 14 31 11 33 -2 2 -9 -7 -15
-21z"/>
<path d="M6736 3605 c-9 -26 -7 -32 5 -12 6 10 9 21 6 23 -2 3 -7 -2 -11 -11z"/>
<path d="M6771 3513 c-10 -26 -10 -27 4 -9 8 11 15 23 15 28 0 15 -7 8 -19
-19z"/>
<path d="M6846 3485 c-9 -26 -7 -32 5 -12 6 10 9 21 6 23 -2 3 -7 -2 -11 -11z"/>
<path d="M2025 3590 c-7 -12 12 -12 40 0 18 8 17 9 -7 9 -15 1 -30 -3 -33 -9z"/>
<path d="M6892 3181 c-6 -17 -9 -31 -6 -31 7 0 25 52 20 57 -2 2 -8 -10 -14
-26z"/>
<path d="M6925 3169 c-4 -6 -5 -12 -2 -15 2 -3 7 2 10 11 7 17 1 20 -8 4z"/>
<path d="M4586 3295 c-9 -26 -7 -32 5 -12 6 10 9 21 6 23 -2 3 -7 -2 -11 -11z"/>
<path d="M4286 2945 c-9 -26 -7 -32 5 -12 6 10 9 21 6 23 -2 3 -7 -2 -11 -11z"/>
<path d="M4256 2875 c-9 -26 -7 -32 5 -12 6 10 9 21 6 23 -2 3 -7 -2 -11 -11z"/>
<path d="M3822 2485 c-17 -37 -14 -45 4 -12 9 16 14 31 11 33 -2 2 -9 -7 -15
-21z"/>
<path d="M7056 2995 c-9 -26 -7 -32 5 -12 6 10 9 21 6 23 -2 3 -7 -2 -11 -11z"/>
<path d="M4702 2969 c-18 -39 -32 -77 -32 -83 0 -6 16 25 35 68 19 44 33 81
32 83 -2 2 -18 -29 -35 -68z"/>
<path d="M3385 2549 c-11 -17 1 -21 15 -4 8 9 8 15 2 15 -6 0 -14 -5 -17 -11z"/>
<path d="M3342 2520 c-7 -11 -8 -20 -3 -20 9 0 24 30 18 36 -1 2 -8 -6 -15
-16z"/>
<path d="M3286 2475 c-11 -8 -15 -15 -9 -15 6 0 16 7 23 15 16 19 11 19 -14 0z"/>
<path d="M6740 2916 c0 -2 8 -10 18 -17 15 -13 16 -12 3 4 -13 16 -21 21 -21
13z"/>
<path d="M6755 2870 c-3 -5 -1 -10 4 -10 6 0 11 5 11 10 0 6 -2 10 -4 10 -3 0
-8 -4 -11 -10z"/>
<path d="M6911 2904 c0 -11 3 -14 6 -6 3 7 2 16 -1 19 -3 4 -6 -2 -5 -13z"/>
<path d="M6827 2719 c-9 -23 -15 -45 -12 -47 2 -3 9 7 14 21 5 14 14 26 19 28
5 2 6 12 3 23 -6 15 -10 10 -24 -25z"/>
<path d="M3085 2889 c-9 -17 -15 -33 -13 -35 3 -2 12 12 21 31 21 43 13 47 -8
4z"/>
<path d="M4356 2755 c-9 -26 -7 -32 5 -12 6 10 9 21 6 23 -2 3 -7 -2 -11 -11z"/>
<path d="M6975 2679 c-4 -6 -5 -12 -2 -15 2 -3 7 2 10 11 7 17 1 20 -8 4z"/>
<path d="M6956 2633 c-6 -14 -5 -15 5 -6 7 7 10 15 7 18 -3 3 -9 -2 -12 -12z"/>
<path d="M2737 2133 c-4 -3 -7 -11 -7 -17 0 -6 5 -5 12 2 6 6 9 14 7 17 -3 3
-9 2 -12 -2z"/>
<path d="M2659 2080 c-13 -10 -19 -19 -13 -20 6 0 19 9 29 20 23 26 14 26 -16
0z"/>
<path d="M2582 2051 c-6 -16 -20 -34 -31 -41 -12 -6 -21 -16 -21 -22 0 -7 5
-6 15 2 12 10 15 10 15 -1 1 -18 25 28 34 64 8 36 1 35 -12 -2z"/>
<path d="M2609 2043 c-13 -16 -12 -17 4 -4 16 13 21 21 13 21 -2 0 -10 -8 -17
-17z"/>
<path d="M4006 1935 c-9 -26 -7 -32 5 -12 6 10 9 21 6 23 -2 3 -7 -2 -11 -11z"/>
<path d="M3916 1723 c-6 -14 -5 -15 5 -6 7 7 10 15 7 18 -3 3 -9 -2 -12 -12z"/>
<path d="M6956 1773 c-6 -14 -5 -15 5 -6 7 7 10 15 7 18 -3 3 -9 -2 -12 -12z"/>
<path d="M3716 1595 c-9 -26 -7 -32 5 -12 6 10 9 21 6 23 -2 3 -7 -2 -11 -11z"/>
<path d="M2466 1415 c-9 -14 -14 -25 -11 -25 3 0 1 -9 -5 -20 -9 -17 -8 -20 9
-20 15 0 21 9 26 41 9 50 3 57 -19 24z"/>
<path d="M6565 899 c-4 -6 -5 -12 -2 -15 2 -3 7 2 10 11 7 17 1 20 -8 4z"/>
<path d="M2622 705 c-17 -37 -14 -45 4 -12 9 16 14 31 11 33 -2 2 -9 -7 -15
-21z"/>
<path d="M2536 505 c-9 -26 -7 -32 5 -12 6 10 9 21 6 23 -2 3 -7 -2 -11 -11z"/>
<path d="M2512 445 c-17 -37 -14 -45 4 -12 9 16 14 31 11 33 -2 2 -9 -7 -15
-21z"/>
<path d="M7836 747 c3 -10 9 -15 12 -12 3 3 0 11 -7 18 -10 9 -11 8 -5 -6z"/>
<path d="M8006 437 c3 -10 9 -15 12 -12 3 3 0 11 -7 18 -10 9 -11 8 -5 -6z"/>
<path d="M8000 371 c0 -6 4 -13 10 -16 6 -3 7 1 4 9 -7 18 -14 21 -14 7z"/>
<path d="M7527 534 c-4 -4 -7 -14 -7 -23 0 -11 3 -12 11 -4 6 6 10 16 7 23 -2
6 -7 8 -11 4z"/>
<path d="M4000 7797 c0 -4 9 -25 20 -47 11 -22 20 -45 20 -52 0 -7 11 -26 25
-43 24 -29 24 -28 -5 38 -29 65 -60 120 -60 104z"/>
<path d="M6346 7748 c-2 -29 -10 -107 -16 -173 -6 -66 -20 -214 -31 -330 -11
-115 -22 -248 -24 -295 -4 -83 -3 -83 10 28 8 66 22 130 34 155 11 23 52 116
91 207 39 90 74 167 77 170 3 3 3 -20 -1 -50 -4 -30 -5 -52 -2 -49 5 5 23 114
31 195 2 22 9 70 14 105 13 76 13 102 1 73 -4 -12 -16 -70 -25 -129 -15 -93
-29 -135 -95 -291 -44 -101 -86 -195 -95 -211 l-16 -28 5 45 c3 25 8 77 11
115 9 110 26 208 40 230 7 11 34 72 60 135 27 63 53 121 58 128 5 7 7 15 3 19
-8 8 -5 15 -65 -127 -58 -137 -76 -166 -67 -110 3 19 10 77 16 129 6 52 13 98
16 103 3 4 -2 8 -10 8 -10 0 -16 -15 -20 -52z"/>
<path d="M6605 7789 c-4 -6 -5 -12 -2 -15 2 -3 7 2 10 11 7 17 1 20 -8 4z"/>
<path d="M10489 7783 c-13 -16 -12 -17 4 -4 9 7 17 15 17 17 0 8 -8 3 -21 -13z"/>
<path d="M6121 7694 c-23 -53 -40 -99 -38 -101 3 -2 23 40 46 93 23 53 40 98
38 100 -2 2 -22 -39 -46 -92z"/>
<path d="M4170 7740 c6 -11 13 -20 16 -20 2 0 0 9 -6 20 -6 11 -13 20 -16 20
-2 0 0 -9 6 -20z"/>
<path d="M10334 7738 l-19 -23 23 19 c21 18 27 26 19 26 -2 0 -12 -10 -23 -22z"/>
<path d="M6601 7724 c0 -11 3 -14 6 -6 3 7 2 16 -1 19 -3 4 -6 -2 -5 -13z"/>
<path d="M6666 7725 c-9 -26 -7 -32 5 -12 6 10 9 21 6 23 -2 3 -7 -2 -11 -11z"/>
<path d="M4160 7710 c6 -11 13 -20 16 -20 2 0 0 9 -6 20 -6 11 -13 20 -16 20
-2 0 0 -9 6 -20z"/>
<path d="M10255 7674 c-30 -27 -32 -31 -9 -16 28 19 62 53 53 52 -2 -1 -22
-17 -44 -36z"/>
<path d="M10694 7695 c-10 -8 -14 -15 -8 -15 6 0 17 7 24 15 16 19 9 19 -16 0z"/>
<path d="M10954 7695 c-10 -8 -14 -15 -8 -15 6 0 17 7 24 15 16 19 9 19 -16 0z"/>
<path d="M6588 7680 c-7 -24 -3 -38 8 -28 3 4 4 17 2 30 l-3 23 -7 -25z"/>
<path d="M6701 7684 c0 -11 3 -14 6 -6 3 7 2 16 -1 19 -3 4 -6 -2 -5 -13z"/>
<path d="M10349 7673 c-13 -16 -12 -17 4 -4 9 7 17 15 17 17 0 8 -8 3 -21 -13z"/>
<path d="M11070 7675 c-7 -9 -8 -15 -2 -15 5 0 12 7 16 15 3 8 4 15 2 15 -2 0
-9 -7 -16 -15z"/>
<path d="M10539 7663 c-13 -16 -12 -17 4 -4 9 7 17 15 17 17 0 8 -8 3 -21 -13z"/>
<path d="M10890 7649 c-22 -18 -22 -19 -3 -10 12 6 25 16 28 21 9 15 3 12 -25
-11z"/>
<path d="M6692 7640 c0 -14 2 -19 5 -12 2 6 2 18 0 25 -3 6 -5 1 -5 -13z"/>
<path d="M10289 7623 c-13 -16 -12 -17 4 -4 9 7 17 15 17 17 0 8 -8 3 -21 -13z"/>
<path d="M6581 7614 c0 -11 3 -14 6 -6 3 7 2 16 -1 19 -3 4 -6 -2 -5 -13z"/>
<path d="M10454 7598 l-19 -23 23 19 c21 18 27 26 19 26 -2 0 -12 -10 -23 -22z"/>
<path d="M6682 7590 c0 -14 2 -19 5 -12 2 6 2 18 0 25 -3 6 -5 1 -5 -13z"/>
<path d="M10224 7574 l-39 -35 43 32 c38 30 48 39 39 39 -2 0 -21 -16 -43 -36z"/>
<path d="M6062 7555 c-17 -37 -14 -45 4 -12 9 16 14 31 11 33 -2 2 -9 -7 -15
-21z"/>
<path d="M6572 7560 c0 -14 2 -19 5 -12 2 6 2 18 0 25 -3 6 -5 1 -5 -13z"/>
<path d="M10409 7563 c-13 -16 -12 -17 4 -4 9 7 17 15 17 17 0 8 -8 3 -21 -13z"/>
<path d="M6671 7553 c0 -6 -4 -20 -7 -30 -5 -14 -4 -15 5 -7 7 7 11 20 8 30
-3 11 -5 14 -6 7z"/>
<path d="M6564 7505 c-9 -37 0 -40 13 -5 6 17 7 30 2 30 -5 0 -11 -11 -15 -25z"/>
<path d="M10404 7478 l-19 -23 23 19 c21 18 27 26 19 26 -2 0 -12 -10 -23 -22z"/>
<path d="M10639 7473 c-13 -16 -12 -17 4 -4 9 7 17 15 17 17 0 8 -8 3 -21 -13z"/>
<path d="M5826 7419 c-9 -23 -15 -43 -13 -46 3 -2 12 15 21 38 9 23 15 43 13
46 -3 2 -12 -15 -21 -38z"/>
<path d="M10213 7419 c-29 -22 -53 -42 -53 -44 0 -7 99 65 106 76 8 14 3 11
-53 -32z"/>
<path d="M10564 7418 l-19 -23 23 19 c21 18 27 26 19 26 -2 0 -12 -10 -23 -22z"/>
<path d="M6467 7365 c-3 -11 -11 -55 -16 -98 -6 -43 -18 -92 -27 -108 -8 -17
-14 -33 -11 -35 7 -8 47 84 47 109 0 14 5 49 11 77 11 50 8 94 -4 55z"/>
<path d="M10105 7339 c-52 -40 -57 -46 -17 -23 29 16 73 55 61 53 -2 0 -22
-14 -44 -30z"/>
<path d="M5786 7325 c-9 -26 -7 -32 5 -12 6 10 9 21 6 23 -2 3 -7 -2 -11 -11z"/>
<path d="M6531 7324 c0 -11 3 -14 6 -6 3 7 2 16 -1 19 -3 4 -6 -2 -5 -13z"/>
<path d="M10169 7303 c-13 -16 -12 -17 4 -4 16 13 21 21 13 21 -2 0 -10 -8
-17 -17z"/>
<path d="M10369 7283 c-13 -16 -12 -17 4 -4 9 7 17 15 17 17 0 8 -8 3 -21 -13z"/>
<path d="M5766 7275 c-9 -26 -7 -32 5 -12 6 10 9 21 6 23 -2 3 -7 -2 -11 -11z"/>
<path d="M10115 7264 c-19 -15 -22 -21 -9 -15 18 9 52 41 43 41 -2 0 -17 -12
-34 -26z"/>
<path d="M6597 7218 c-22 -54 -16 -60 8 -8 10 22 16 42 13 45 -3 3 -12 -14
-21 -37z"/>
<path d="M10290 7229 c-22 -18 -22 -19 -3 -10 12 6 25 16 28 21 9 15 3 12 -25
-11z"/>
<path d="M10040 7209 l-35 -31 32 22 c29 19 50 40 41 40 -2 0 -19 -14 -38 -31z"/>
<path d="M6510 7200 c0 -19 3 -21 12 -12 9 9 9 15 0 24 -9 9 -12 7 -12 -12z"/>
<path d="M10255 7130 c-3 -6 1 -7 9 -4 18 7 21 14 7 14 -6 0 -13 -4 -16 -10z"/>
<path d="M6387 7075 c-24 -50 -20 -58 4 -12 11 22 19 41 17 43 -3 2 -12 -12
-21 -31z"/>
<path d="M9983 7019 c-43 -30 -58 -48 -25 -30 21 12 79 60 72 60 -3 0 -24 -13
-47 -30z"/>
<path d="M6421 7024 c0 -11 3 -14 6 -6 3 7 2 16 -1 19 -3 4 -6 -2 -5 -13z"/>
<path d="M6356 7005 c-9 -26 -7 -32 5 -12 6 10 9 21 6 23 -2 3 -7 -2 -11 -11z"/>
<path d="M6412 6972 c-1 -18 -9 -49 -17 -69 -20 -47 -12 -54 9 -8 10 21 16 51
13 73 -4 36 -4 36 -5 4z"/>
<path d="M6326 6933 c-6 -14 -5 -15 5 -6 7 7 10 15 7 18 -3 3 -9 -2 -12 -12z"/>
<path d="M6470 6935 c0 -8 2 -15 4 -15 2 0 6 7 10 15 3 8 1 15 -4 15 -6 0 -10
-7 -10 -15z"/>
<path d="M6290 6853 c-11 -26 -13 -26 -20 -8 -7 20 -18 -62 -25 -190 -3 -58
-1 -51 10 35 9 67 22 119 36 143 11 21 19 40 17 43 -3 2 -11 -8 -18 -23z"/>
<path d="M6371 6698 c0 -9 -4 -25 -7 -35 -5 -17 -5 -17 6 0 6 10 9 25 7 35 -4
15 -5 15 -6 0z"/>
<path d="M6234 6566 c-3 -8 -4 -29 -1 -48 l4 -33 1 38 c1 20 7 37 12 37 6 0
10 5 10 10 0 15 -20 12 -26 -4z"/>
<path d="M6222 6435 c0 -16 2 -22 5 -12 2 9 2 23 0 30 -3 6 -5 -1 -5 -18z"/>
<path d="M6141 6390 c-5 -64 -9 -101 -15 -117 -3 -7 -1 -13 4 -13 13 0 22 57
17 120 -3 55 -3 55 -6 10z"/>
<path d="M6082 6365 c-17 -37 -14 -45 4 -12 9 16 14 31 11 33 -2 2 -9 -7 -15
-21z"/>
<path d="M6210 6360 c0 -5 4 -10 9 -10 6 0 13 5 16 10 3 6 -1 10 -9 10 -9 0
-16 -4 -16 -10z"/>
<path d="M6211 6314 c0 -11 3 -14 6 -6 3 7 2 16 -1 19 -3 4 -6 -2 -5 -13z"/>
<path d="M6031 6249 c-17 -40 -30 -74 -28 -76 2 -2 18 29 36 68 17 40 30 74
28 76 -2 2 -18 -29 -36 -68z"/>
<path d="M6131 6224 c0 -11 3 -14 6 -6 3 7 2 16 -1 19 -3 4 -6 -2 -5 -13z"/>
<path d="M8941 6231 c-8 -5 -16 -20 -18 -32 -4 -25 -4 -25 20 14 19 30 19 31
-2 18z"/>
<path d="M6191 6124 c0 -11 3 -14 6 -6 3 7 2 16 -1 19 -3 4 -6 -2 -5 -13z"/>
<path d="M6117 6095 c-4 -8 -2 -17 3 -20 6 -4 10 3 10 14 0 25 -6 27 -13 6z"/>
<path d="M5446 5785 c-9 -26 -7 -32 5 -12 6 10 9 21 6 23 -2 3 -7 -2 -11 -11z"/>
<path d="M5496 5775 c-9 -26 -7 -32 5 -12 6 10 9 21 6 23 -2 3 -7 -2 -11 -11z"/>
<path d="M5797 5715 c-24 -50 -20 -58 4 -12 11 22 19 41 17 43 -3 2 -12 -12
-21 -31z"/>
<path d="M5416 5715 c-9 -26 -7 -32 5 -12 6 10 9 21 6 23 -2 3 -7 -2 -11 -11z"/>
<path d="M8196 5715 c-9 -26 -7 -32 5 -12 6 10 9 21 6 23 -2 3 -7 -2 -11 -11z"/>
<path d="M5462 5695 c-17 -37 -14 -45 4 -12 9 16 14 31 11 33 -2 2 -9 -7 -15
-21z"/>
<path d="M8135 5679 c-4 -6 -5 -12 -2 -15 2 -3 7 2 10 11 7 17 1 20 -8 4z"/>
<path d="M5516 5565 c-9 -26 -7 -32 5 -12 6 10 9 21 6 23 -2 3 -7 -2 -11 -11z"/>
<path d="M5971 5493 c0 -25 1 -26 9 -8 12 27 12 35 0 35 -5 0 -10 -12 -9 -27z"/>
<path d="M5892 5450 c0 -19 2 -27 5 -17 2 9 2 25 0 35 -3 9 -5 1 -5 -18z"/>
<path d="M5756 5435 c-9 -26 -7 -32 5 -12 6 10 9 21 6 23 -2 3 -7 -2 -11 -11z"/>
<path d="M5902 5350 c0 -14 2 -19 5 -12 2 6 2 18 0 25 -3 6 -5 1 -5 -13z"/>
<path d="M5905 5270 c-3 -5 -1 -10 4 -10 6 0 11 5 11 10 0 6 -2 10 -4 10 -3 0
-8 -4 -11 -10z"/>
<path d="M7386 5085 c-9 -26 -7 -32 5 -12 6 10 9 21 6 23 -2 3 -7 -2 -11 -11z"/>
<path d="M5572 5005 c-17 -37 -14 -45 4 -12 9 16 14 31 11 33 -2 2 -9 -7 -15
-21z"/>
<path d="M7153 4979 c-18 -12 -33 -23 -33 -25 0 -7 58 25 65 36 9 14 5 13 -32
-11z"/>
<path d="M5616 4955 c-9 -26 -7 -32 5 -12 6 10 9 21 6 23 -2 3 -7 -2 -11 -11z"/>
<path d="M5536 4925 c-9 -26 -7 -32 5 -12 6 10 9 21 6 23 -2 3 -7 -2 -11 -11z"/>
<path d="M5586 4885 c-9 -26 -7 -32 5 -12 6 10 9 21 6 23 -2 3 -7 -2 -11 -11z"/>
<path d="M5476 4785 c-9 -26 -7 -32 5 -12 6 10 9 21 6 23 -2 3 -7 -2 -11 -11z"/>
<path d="M5176 4775 c-9 -26 -7 -32 5 -12 6 10 9 21 6 23 -2 3 -7 -2 -11 -11z"/>
<path d="M6686 3125 c-9 -26 -7 -32 5 -12 6 10 9 21 6 23 -2 3 -7 -2 -11 -11z"/>
<path d="M6652 3045 c-17 -37 -14 -45 4 -12 9 16 14 31 11 33 -2 2 -9 -7 -15
-21z"/>
<path d="M6241 3034 c0 -11 3 -14 6 -6 3 7 2 16 -1 19 -3 4 -6 -2 -5 -13z"/>
<path d="M6622 2975 c-17 -37 -14 -45 4 -12 9 16 14 31 11 33 -2 2 -9 -7 -15
-21z"/>
<path d="M6251 2974 c0 -11 3 -14 6 -6 3 7 2 16 -1 19 -3 4 -6 -2 -5 -13z"/>
<path d="M6262 2930 c0 -14 2 -19 5 -12 2 6 2 18 0 25 -3 6 -5 1 -5 -13z"/>
<path d="M6191 2924 c0 -11 3 -14 6 -6 3 7 2 16 -1 19 -3 4 -6 -2 -5 -13z"/>
<path d="M6270 2888 c0 -35 24 -128 32 -128 6 0 7 8 3 18 -4 9 -12 40 -17 67
-10 51 -18 70 -18 43z"/>
<path d="M6202 2840 c0 -19 2 -27 5 -17 2 9 2 25 0 35 -3 9 -5 1 -5 -18z"/>
<path d="M4695 2790 c-21 -22 -37 -41 -34 -43 2 -2 21 16 43 40 49 54 43 56
-9 3z"/>
<path d="M6212 2780 c0 -14 2 -19 5 -12 2 6 2 18 0 25 -3 6 -5 1 -5 -13z"/>
<path d="M6222 2710 c0 -19 2 -27 5 -17 2 9 2 25 0 35 -3 9 -5 1 -5 -18z"/>
<path d="M4756 2703 c-6 -14 -5 -15 5 -6 7 7 10 15 7 18 -3 3 -9 -2 -12 -12z"/>
<path d="M6495 2689 c-4 -6 -5 -12 -2 -15 2 -3 7 2 10 11 7 17 1 20 -8 4z"/>
<path d="M6236 2605 c3 -38 9 -86 14 -105 8 -34 8 -35 8 -5 0 17 -6 64 -13
105 l-14 75 5 -70z"/>
<path d="M6101 2614 c0 -11 3 -14 6 -6 3 7 2 16 -1 19 -3 4 -6 -2 -5 -13z"/>
<path d="M4631 2551 c-19 -25 -27 -40 -17 -32 20 17 60 71 55 75 -2 2 -19 -18
-38 -43z"/>
<path d="M6445 2579 c-4 -6 -5 -12 -2 -15 2 -3 7 2 10 11 7 17 1 20 -8 4z"/>
<path d="M6416 2515 c-9 -26 -7 -32 5 -12 6 10 9 21 6 23 -2 3 -7 -2 -11 -11z"/>
<path d="M4496 2495 c-9 -26 -7 -32 5 -12 6 10 9 21 6 23 -2 3 -7 -2 -11 -11z"/>
<path d="M6113 2470 c0 -25 2 -35 4 -22 2 12 2 32 0 45 -2 12 -4 2 -4 -23z"/>
<path d="M6502 2475 c-17 -37 -14 -45 4 -12 9 16 14 31 11 33 -2 2 -9 -7 -15
-21z"/>
<path d="M6052 2470 c0 -14 2 -19 5 -12 2 6 2 18 0 25 -3 6 -5 1 -5 -13z"/>
<path d="M4550 2462 c0 -5 -20 -35 -45 -66 -48 -62 -62 -92 -19 -41 71 85 84
104 74 110 -5 3 -10 2 -10 -3z"/>
<path d="M4472 2435 c-17 -37 -14 -45 4 -12 9 16 14 31 11 33 -2 2 -9 -7 -15
-21z"/>
<path d="M6262 2430 c0 -14 3 -45 7 -70 l8 -45 1 40 c0 22 -4 54 -8 70 -7 27
-8 28 -8 5z"/>
<path d="M6737 2413 c-4 -3 -7 -11 -7 -17 0 -6 5 -5 12 2 6 6 9 14 7 17 -3 3
-9 2 -12 -2z"/>
<path d="M6122 2380 c0 -14 2 -19 5 -12 2 6 2 18 0 25 -3 6 -5 1 -5 -13z"/>
<path d="M4442 2365 c-17 -37 -14 -45 4 -12 9 16 14 31 11 33 -2 2 -9 -7 -15
-21z"/>
<path d="M6120 2279 c0 -19 4 -40 9 -48 6 -10 8 0 5 29 -5 53 -14 66 -14 19z"/>
<path d="M6766 2203 c-6 -14 -5 -15 5 -6 7 7 10 15 7 18 -3 3 -9 -2 -12 -12z"/>
<path d="M6131 2174 c0 -11 3 -14 6 -6 3 7 2 16 -1 19 -3 4 -6 -2 -5 -13z"/>
<path d="M6746 2165 c-9 -26 -7 -32 5 -12 6 10 9 21 6 23 -2 3 -7 -2 -11 -11z"/>
<path d="M6133 2107 c0 -28 4 -43 8 -35 4 7 4 29 -1 48 -8 34 -8 33 -7 -13z"/>
<path d="M6063 2070 c0 -41 2 -58 4 -37 2 20 2 54 0 75 -2 20 -4 3 -4 -38z"/>
<path d="M6063 1935 c0 -27 2 -38 4 -22 2 15 2 37 0 50 -2 12 -4 0 -4 -28z"/>
<path d="M5943 1925 c0 -27 2 -38 4 -22 2 15 2 37 0 50 -2 12 -4 0 -4 -28z"/>
<path d="M5882 1830 c0 -14 2 -19 5 -12 2 6 2 18 0 25 -3 6 -5 1 -5 -13z"/>
<path d="M6069 1799 c0 -13 0 -88 1 -166 1 -110 -3 -149 -15 -172 -22 -44 -18
-51 6 -11 20 32 22 47 20 199 -1 91 -4 167 -6 170 -3 2 -5 -7 -6 -20z"/>
<path d="M5942 1785 c0 -16 2 -22 5 -12 2 9 2 23 0 30 -3 6 -5 -1 -5 -18z"/>
<path d="M6320 1789 c-7 -11 -10 -23 -7 -25 2 -2 9 7 15 21 14 30 7 33 -8 4z"/>
<path d="M6257 1648 c-15 -34 -25 -63 -23 -65 2 -2 15 24 30 58 15 34 25 63
23 65 -2 2 -16 -24 -30 -58z"/>
<path d="M5930 1575 c0 -54 2 -96 5 -94 7 7 8 179 1 186 -3 4 -6 -38 -6 -92z"/>
<path d="M5871 1644 c0 -11 3 -14 6 -6 3 7 2 16 -1 19 -3 4 -6 -2 -5 -13z"/>
<path d="M5862 1450 c0 -14 2 -19 5 -12 2 6 2 18 0 25 -3 6 -5 1 -5 -13z"/>
<path d="M6081 1444 c0 -11 3 -14 6 -6 3 7 2 16 -1 19 -3 4 -6 -2 -5 -13z"/>
<path d="M6315 1449 c-4 -6 -5 -12 -2 -15 2 -3 7 2 10 11 7 17 1 20 -8 4z"/>
<path d="M5929 1418 c-1 -13 -2 -41 -4 -63 -5 -90 -6 -318 0 -323 3 -3 5 26 5
64 0 38 3 131 5 207 3 75 3 137 0 137 -3 0 -5 -10 -6 -22z"/>
<path d="M5861 1404 c0 -11 3 -14 6 -6 3 7 2 16 -1 19 -3 4 -6 -2 -5 -13z"/>
<path d="M6292 1395 c-17 -37 -14 -45 4 -12 9 16 14 31 11 33 -2 2 -9 -7 -15
-21z"/>
<path d="M5752 1370 c0 -14 2 -19 5 -12 2 6 2 18 0 25 -3 6 -5 1 -5 -13z"/>
<path d="M6266 1335 c-9 -26 -7 -32 5 -12 6 10 9 21 6 23 -2 3 -7 -2 -11 -11z"/>
<path d="M5853 1255 c0 -27 2 -38 4 -22 2 15 2 37 0 50 -2 12 -4 0 -4 -28z"/>
<path d="M6245 1289 c-4 -6 -5 -12 -2 -15 2 -3 7 2 10 11 7 17 1 20 -8 4z"/>
<path d="M5732 1155 c0 -16 2 -22 5 -12 2 9 2 23 0 30 -3 6 -5 -1 -5 -18z"/>
<path d="M6036 1155 c-9 -26 -7 -32 5 -12 6 10 9 21 6 23 -2 3 -7 -2 -11 -11z"/>
<path d="M6311 1039 c-22 -51 -40 -94 -38 -96 2 -2 23 38 46 88 22 51 40 94
38 96 -2 2 -23 -38 -46 -88z"/>
<path d="M6006 1085 c-9 -26 -7 -32 5 -12 6 10 9 21 6 23 -2 3 -7 -2 -11 -11z"/>
<path d="M5843 1030 c0 -36 2 -50 4 -32 2 17 2 47 0 65 -2 17 -4 3 -4 -33z"/>
<path d="M5910 944 c0 -169 -11 -595 -16 -652 -5 -58 -7 -142 -5 -249 1 -24 5
-43 9 -43 4 0 6 30 4 66 -3 42 -1 64 5 61 6 -4 15 5 22 19 15 35 13 44 -4 14
l-13 -25 -7 25 c-3 14 -1 65 4 115 6 50 11 130 11 178 0 60 5 98 16 118 8 17
13 33 11 36 -3 2 -8 -5 -12 -18 -4 -12 -10 -17 -14 -11 -8 14 13 334 24 352 8
13 7 13 -9 1 -17 -14 -18 -12 -15 27 2 22 0 44 -4 48 -4 4 -7 -24 -7 -62z"/>
<path d="M3396 953 c-6 -14 -5 -15 5 -6 7 7 10 15 7 18 -3 3 -9 -2 -12 -12z"/>
<path d="M5714 936 c-3 -8 -4 -25 -2 -38 3 -17 5 -13 9 15 5 38 2 47 -7 23z"/>
<path d="M5833 870 c0 -30 2 -43 4 -27 2 15 2 39 0 55 -2 15 -4 2 -4 -28z"/>
<path d="M6060 873 c-23 -58 -23 -61 0 -20 12 21 20 43 18 48 -2 6 -10 -7 -18
-28z"/>
<path d="M5702 815 c0 -16 2 -22 5 -12 2 9 2 23 0 30 -3 6 -5 -1 -5 -18z"/>
<path d="M6022 785 c-17 -37 -14 -45 4 -12 9 16 14 31 11 33 -2 2 -9 -7 -15
-21z"/>
<path d="M6326 753 c-6 -14 -5 -15 5 -6 7 7 10 15 7 18 -3 3 -9 -2 -12 -12z"/>
<path d="M5822 665 l1 -100 7 75 c3 41 3 86 -1 100 -4 14 -7 -20 -7 -75z"/>
<path d="M5692 725 c0 -16 2 -22 5 -12 2 9 2 23 0 30 -3 6 -5 -1 -5 -18z"/>
<path d="M5976 685 c-9 -26 -7 -32 5 -12 6 10 9 21 6 23 -2 3 -7 -2 -11 -11z"/>
<path d="M5686 639 c-10 -65 -18 -174 -12 -168 7 7 27 191 21 197 -2 2 -6 -11
-9 -29z"/>
<path d="M3107 608 c-9 -23 -15 -44 -12 -46 4 -5 15 19 29 66 12 38 0 24 -17
-20z"/>
<path d="M5808 395 c-4 -84 -10 -131 -19 -142 -9 -10 -9 -14 -2 -10 9 6 13 -9
15 -50 2 -32 7 27 12 130 4 103 6 190 4 193 -3 2 -8 -52 -10 -121z"/>
<path d="M6076 505 c-9 -26 -7 -32 5 -12 6 10 9 21 6 23 -2 3 -7 -2 -11 -11z"/>
<path d="M6052 445 c-17 -37 -14 -45 4 -12 9 16 14 31 11 33 -2 2 -9 -7 -15
-21z"/>
<path d="M2950 406 c0 -7 -11 -31 -25 -52 l-25 -39 30 35 c26 30 40 70 25 70
-3 0 -5 -6 -5 -14z"/>
<path d="M5652 267 c-8 -87 -11 -161 -9 -164 3 -2 8 22 11 54 4 32 10 85 14
118 4 33 5 80 2 105 -4 32 -9 -2 -18 -113z"/>
<path d="M6002 335 c-17 -37 -14 -45 4 -12 9 16 14 31 11 33 -2 2 -9 -7 -15
-21z"/>
<path d="M5957 235 c-24 -50 -20 -58 4 -12 11 22 19 41 17 43 -3 2 -12 -12
-21 -31z"/>
<path d="M6405 115 c-26 -58 -46 -108 -43 -110 3 -3 26 43 52 101 26 59 45
108 43 110 -2 2 -25 -44 -52 -101z"/>
<path d="M5789 67 c-2 -37 -1 -67 2 -67 10 0 15 51 8 95 -5 35 -6 32 -10 -28z"/>
<path d="M5633 40 c0 -25 2 -35 4 -22 2 12 2 32 0 45 -2 12 -4 2 -4 -23z"/>
</g>
</svg>
