<?xml version="1.0" encoding="UTF-8"?>
<svg id="Capa_1" data-name="Capa 1" xmlns="http://www.w3.org/2000/svg" viewBox="0 0 1080 1080">
  <defs>
    <style>
      .cls-1 {
        stroke: #999;
        stroke-miterlimit: 10;
      }
    </style>
  </defs>
  <path class="cls-1" d="m170.56,450.53c3.2.14,6.29.4,9.38.41,39.17.05,78.35-.18,117.51.29,7.8.09,11.15-2.68,13.74-9.63,16.4-43.86,43.55-80.36,79.69-109.62,60.65-49.1,130.3-69.11,207.76-58.7,74.85,10.06,134.9,46.2,180.03,106.75,8.56,11.48,15.94,23.84,24.15,36.21,39.09-20.12,77.83-40.07,116.55-60.01-71.2-143.09-242.18-246.85-433.16-210.72-176.81,33.45-290.86,176.79-315.65,305.02Zm748.48,274.2c-1.73-1.11-2.88-1.98-4.14-2.64-34.32-18.03-68.82-35.73-102.86-54.25-8.31-4.52-11.88-2.74-16.06,4.86-20.71,37.71-49.52,68.02-85.29,91.79-57.82,38.43-121.45,52.05-189.66,41.83-49.3-7.39-93.34-27.66-131.6-60.24-35.03-29.83-61.84-65.49-78.97-108.19-2.57-6.4-5.35-8.86-12.38-8.8-39.45.36-78.9.19-118.36.24-3.04,0-6.09.33-9.26.52,26.35,130.8,143.84,275.49,327.08,306.37,177.81,29.96,346.46-65.54,421.52-211.49Zm-377.34-95.09c5.87,0,10.17,0,14.46,0,26.99,0,53.97.18,80.95-.04,14.85-.12,24.33-8.57,24.83-21.3.6-15.12-8.47-24.08-25.16-24.18-28.73-.17-57.45-.08-86.18-.02-4.95.01-9.08.15-9-6.98.29-24.66.21-49.33.03-73.99-.04-5.33,2.06-7.19,7.2-7.08,9.28.21,18.57.05,27.85.04,20.31,0,40.63.24,60.93-.11,16.2-.28,24.86-9.26,24.28-24.15-.49-12.64-9.93-20.96-24.95-21.09-28.72-.25-57.45-.36-86.17.02-7.43.1-9.55-2.38-9.21-9.46.5-10.42-.23-20.9.19-31.33,1.15-28.4-4.25-26.3-27.86-26.07-2.28.02-5.26-.05-6.68,1.26-3.15,2.89-7.9,6.74-7.76,10.02.44,10.42-4.43,11.85-13.15,11.42-19.17-.95-38.31-.35-56.56,6.64-34.94,13.38-58.24,37.97-69.3,73.67-2.04,6.58-4.97,8.64-11.55,8.48-16.24-.39-32.5-.12-48.74-.12-43.23,0-86.47-.03-129.7.03-4.06,0-9.27-1.45-9.3,5.65-.09,24.87-.03,49.75-.52,74.62-.17,8.68,4.16,9.58,11.28,9.55,57.74-.21,115.49.07,173.23-.32,9.1-.06,13.78,1.98,16.59,11.48,6.52,21.97,20.02,39.64,38.18,53.55,21.94,16.8,46.77,24.9,74.5,24.02,7.68-.25,15.38-.04,22.86-.04,2.4,21.14,3.34,21.97,23.24,22.12,1.74.01,3.48.03,5.22.04,13.31.09,15.91-2.39,15.95-15.47.05-16.5.01-33,.01-50.85Z"/>
  <path class="cls-1" d="m170.56,450.53c24.79-128.23,138.84-271.57,315.65-305.02,190.98-36.13,361.96,67.63,433.16,210.72-38.72,19.93-77.46,39.88-116.55,60.01-8.21-12.38-15.59-24.73-24.15-36.21-45.13-60.55-105.18-96.69-180.03-106.75-77.46-10.41-147.11,9.6-207.76,58.7-36.13,29.25-63.29,65.75-79.69,109.62-2.6,6.95-5.94,9.73-13.74,9.63-39.17-.46-78.34-.24-117.51-.29-3.09,0-6.19-.26-9.38-.41Z"/>
  <path class="cls-1" d="m919.04,724.73c-75.06,145.95-243.71,241.45-421.52,211.49-183.24-30.88-300.73-175.58-327.08-306.37,3.17-.18,6.22-.51,9.26-.52,39.45-.05,78.91.13,118.36-.24,7.04-.06,9.82,2.4,12.38,8.8,17.13,42.69,43.94,78.35,78.97,108.19,38.27,32.59,82.31,52.85,131.6,60.24,68.21,10.22,131.84-3.39,189.66-41.83,35.77-23.78,64.59-54.09,85.29-91.79,4.17-7.6,7.75-9.38,16.06-4.86,34.05,18.52,68.54,36.23,102.86,54.25,1.26.66,2.41,1.53,4.14,2.64Z"/>
  <path class="cls-1" d="m541.7,629.64c0,17.86.04,34.36-.01,50.85-.04,13.08-2.64,15.56-15.95,15.47-1.74-.01-3.48-.03-5.22-.04-19.91-.14-20.85-.98-23.24-22.12-7.48,0-15.17-.21-22.86.04-27.72.89-52.56-7.22-74.5-24.02-18.16-13.91-31.66-31.57-38.18-53.55-2.82-9.5-7.49-11.54-16.59-11.48-57.74.39-115.48.11-173.23.32-7.12.03-11.45-.87-11.28-9.55.49-24.87.43-49.74.52-74.62.03-7.1,5.24-5.65,9.3-5.65,43.23-.06,86.47-.03,129.7-.03,16.25,0,32.5-.27,48.74.12,6.57.16,9.51-1.91,11.55-8.48,11.07-35.7,34.37-60.29,69.3-73.67,18.26-6.99,37.4-7.59,56.56-6.64,8.71.43,13.59-1,13.15-11.42-.14-3.28,4.61-7.12,7.76-10.02,1.43-1.31,4.4-1.23,6.68-1.26,23.61-.23,29-2.33,27.86,26.07-.42,10.43.3,20.91-.19,31.33-.34,7.07,1.79,9.55,9.21,9.46,28.72-.38,57.45-.27,86.17-.02,15.02.13,24.46,8.45,24.95,21.09.58,14.89-8.08,23.87-24.28,24.15-20.31.35-40.62.1-60.93.11-9.29,0-18.57.17-27.85-.04-5.13-.12-7.24,1.75-7.2,7.08.17,24.66.25,49.33-.03,73.99-.08,7.14,4.05,6.99,9,6.98,28.73-.06,57.45-.15,86.18.02,16.68.1,25.76,9.06,25.16,24.18-.51,12.73-9.98,21.18-24.83,21.3-26.98.22-53.97.05-80.95.04-4.3,0-8.6,0-14.46,0Z"/>
</svg>